<svg width="82" height="40" viewBox="0 0 82 40" fill="none" xmlns="http://www.w3.org/2000/svg">
<path d="M37.0625 0.866811V12.1948H38.8394V0.866811H37.0625ZM18.0788 0.673304C14.6171 0.673289 11.9313 3.08218 11.9313 6.5308C11.9313 10.1347 14.6171 12.3884 18.0788 12.3883C21.5404 12.3882 24.2318 10.1347 24.2263 6.5308C24.2213 3.26337 21.5404 0.673319 18.0788 0.673304ZM22.4526 6.5308C22.4526 9.08381 20.4944 10.7757 18.0788 10.7757C15.6632 10.7757 13.7049 9.08381 13.7049 6.5308C13.7049 4.0241 15.6632 2.28592 18.0788 2.28592C20.4944 2.28592 22.4526 4.0241 22.4526 6.5308ZM0 0.500001V12.1948H1.81346L1.81346 4.46618L11.2372 12.5616V10.1369L0 0.500001ZM25.5627 6.5308L32.1574 12.1948H34.8014L28.197 6.5308L34.8014 0.866807H32.1574L25.5627 6.5308ZM53.6161 12.1948H51.6615L50.2319 9.68622L43.7576 9.68623L42.328 12.1948H40.3733L42.7407 8.01366L49.3023 8.01366L46.0305 2.20306L46.9947 0.5L46.9947 0.500011L46.9947 0.5L53.6161 12.1948ZM59.7887 16.2356H51.6902V23.9426H59.7887V25.7531H49.8767V14.4251H59.7887V16.2356ZM53.5036 19.1839H57.5732L58.5983 20.9943H53.5036V19.1839ZM71.1182 23.9426V25.7531H62.1561V14.4251H63.9695V23.9426H71.1182ZM80.975 23.9426L82 25.7531H73.0379V14.4251H74.8513V23.9426H80.975ZM29.5777 37.5009L28.5526 39.3114H20.6155V27.9834H22.429V37.5009H29.5777ZM43.6839 39.3114H41.7293L40.2996 36.8028L33.8253 36.8028L32.3957 39.3114H30.4411L32.8084 35.1302H39.3701L36.0983 29.3196L37.0625 27.6166L37.0625 27.6166L37.0625 27.6166L43.6839 39.3114ZM67.6212 36.3197C67.5692 37.4452 66.9381 38.3807 65.8897 38.8863C64.8863 39.3698 63.4096 39.5693 61.4996 39.4788C59.9566 39.4058 58.5855 39.0338 57.6056 38.4305L57.6056 36.5722C59.3889 37.5547 63.2994 38.1506 64.8149 37.395C65.24 37.1832 65.562 36.7377 65.5806 36.3358C65.6389 35.0738 64.1082 34.7602 62.1011 34.4813C59.1583 34.0723 57.4763 33.3663 57.5871 30.9676C57.6384 29.8579 58.3195 28.9328 59.4558 28.4293C61.3552 27.5889 63.7966 27.5639 66.7142 28.3491V30.0962C64.4467 29.3522 62.3819 29.2564 60.5731 29.8156C60.133 29.9516 59.6063 30.3231 59.5694 30.9224C59.494 32.1453 60.4897 32.4349 63.1432 32.896C65.5669 33.3172 67.7332 33.896 67.6212 36.3197ZM46.5877 19.8977C47.2156 19.3373 47.5619 18.5621 47.5619 17.6583C47.5619 15.6814 46.0437 14.4251 43.7841 14.4251H37.0625V25.7531H44.1984C46.4579 25.7531 47.9761 24.4248 47.9761 22.4479C47.9761 20.6306 46.5877 19.8977 46.5877 19.8977ZM38.876 16.2356H43.8895C45.0532 16.2356 45.748 16.6001 45.748 17.6583C45.748 18.7541 45.0532 19.3657 43.8895 19.3657L41.734 19.3657L40.9436 20.7618L44.3038 20.7618C45.435 20.7628 46.1623 21.3521 46.1623 22.4479C46.1623 23.5061 45.4675 23.9426 44.3038 23.9426H38.876V16.2356ZM54.3249 33.456C54.9527 32.8956 55.299 32.1204 55.299 31.2166C55.299 29.2396 53.7808 27.9834 51.5212 27.9834H44.7996L44.7996 39.3113H51.9355C54.195 39.3113 55.7132 37.9831 55.7132 36.0061C55.7132 34.1888 54.3249 33.456 54.3249 33.456ZM46.6131 29.7938H51.6267C52.7903 29.7938 53.4851 30.1584 53.4851 31.2166C53.4851 32.3124 52.7903 32.924 51.6267 32.924L49.4711 32.924L48.6807 34.32H52.0409C53.1721 34.3211 53.8994 34.9104 53.8994 36.0061C53.8994 37.0643 53.2046 37.5009 52.0409 37.5009H46.6131V29.7938Z" fill="#005AFF"/>
</svg>
