<svg xmlns="http://www.w3.org/2000/svg" xmlns:xlink="http://www.w3.org/1999/xlink" width="354.505" height="400" viewBox="0 0 265.878 300"><defs><clipPath id="a"><path fill-rule="evenodd" d="M183.7 1031.553v.748h6v-.748h-6"/></clipPath><clipPath id="b"><path d="M39.7 880.009h680.315v187.09H39.7Z"/></clipPath><clipPath id="d"><path fill-rule="evenodd" d="M211.7 1031.553v.748h6v-.748h-6"/></clipPath><clipPath id="e"><path d="M39.7 880.009h680.315v187.09H39.7Z"/></clipPath><path id="c" d="M.17.562.263.561l.001.032.003.061.002.025L.172.678.073.679.074.653.071.561.17.562M.149.001.249 0l.002.189a3.371 3.371 0 0 0 .016.31l-.1-.001-.101.001A6.921 6.921 0 0 0 .062.33L.057.197.05.098.04 0l.109.001Z"/></defs><g clip-path="url(#a)" transform="translate(-52.823 -1040.416)"><g clip-path="url(#b)"><use xlink:href="#c" width="100%" height="100%" fill="#9d6daf" transform="matrix(23.3931 0 0 -23.4067 183.39 1048.222)"/></g></g><g clip-path="url(#d)" transform="translate(-52.823 -1040.416)"><g clip-path="url(#e)"><use xlink:href="#c" width="100%" height="100%" fill="#9d6daf" transform="matrix(23.3931 0 0 -23.4067 211.251 1048.222)"/></g></g><path fill="#e0c070" d="M25.442 118.966c-3.578 0-4.25 1.832-4.526 2.62l-.085.213c-5.016.192-10.629 2.758-10.682 4.42-.01.373.256.852 1.608.98 2.61.255 9.17 1.363 12.673 2.023l.448-.011c3.269.053 6.443.969 9.531 1.97l.17.053c1.395.447 2.929.937 4.356 1.512l1.182.5.82.373.043.022.01-.011c1.417-1.087 3.27-1.204 4.963-1.449l.085-.01c2.3-.278 5.155-.48 7.253-.597l-1.087-.607-.149-.139-.33-.479c-1.778-.692-4.004-1.864-5.932-3.908l-.766-.863-.245-.32c-7.136-4.068-16.039-5.9-16.134-5.91-1.193-.245-2.28-.383-3.206-.383m12.62-25.739-.586-.223-.735.18c-4.824 3.196-3.834 8.148-3.823 8.19l-.096.682-.5.245-.405-.16-1.278-.692-.703.33c-1.086 1.203-.863 5.89-.767 7.21l.426.33c5.474 4.483 7.583 9.51 8.169 11.278l.65.234c1.81.682 3.78 1.448 4.78 1.885l-.138-.266c-.564-1.289-.947-2.716-.958-4.132l-2.556-2.311a43.984 43.984 0 0 1-2.96-3.131l-.629-.756-1.416-2.013-1.044-2.024-.266-.852-.117-.65.042-.372.384.32.202.351.426.714 1.502 2.066c1.235 1.682 4.93 5.175 6.634 6.773l.011-.053.01-.075.863-.448.17.011.427.032.17.021.128.021c-7.06-7.742-7.955-10.138-8.552-12.076l-.01-.447v-.011l.02-.011.32.362 1.161 1.735a44.305 44.305 0 0 0 2.013 2.663l1.96 2.226.117.127 1.757 1.779 1.097.99.51.437v-.128l-.01-.99.032-1.214.021-.277v-.128c-4.046-5.4-6.176-11.342-6.198-16.816l-.255-.937" style="fill:#efc400;fill-opacity:1;stroke-width:10.6496" transform="scale(2)"/><path fill="#e0c070" d="M26.57 96.624c1.14 1.065 2.823 2.535 4.538 3.291l.02-.16.31-1.341-.48-.5c-1.139-1.247-2.172-2.546-3.216-3.877l-1.725-2.482c-.937-1.416-1.768-2.94-2.31-4.366l-.012-.043-.063-.33-.011-.032.074-.32.107-.01.99 1.31c.65.787 5.102 6.943 7.391 8.668l.021-.043.086-.192.096-.18c-.288-.885-.82-2.418-1.044-4.016l-1.417-2.45-.479-.883-.639-1.182-.99-1.928-.554-1.267v-.895h.01l.065.011.053.011.436.352.15.223.149.299c.287.628 1.96 2.928 3.024 4.377v-.192c-.032-3.962 1.79-11.566 1.608-12.013l-.458-.192-1.682.746a115.327 115.327 0 0 0-2.929 2.641l-1.81.884-1.108-.213-.873.596c-.448.852-1.821 5.016-2.396 7.7l.042.053.48.873c.905 1.651 1.831 3.632 2.545 5.219l.415.32 1.587 1.533m1.406 6.209 1.192-2.428-3.067-2.63-.372-.299.095.224c.586 1.512 1.608 4.516 2.109 6.209l.01-.522.033-.554m-9.159-15.367-1.96-.32c-1.448.597-2.737-.873-2.737-.873-1.693-1.917-5.069-4.185-9.19-5.282l-2.205-.288.235.81c1.256 1.214 5.559 7.241 8.328 11.554l.191.32.192-.703c.351-1.31.67-4.057.575-5.644v-.064l.053.053c.48.586 1.48 2.513.405 7.849l-.064.287.032.043c1.906 3.227 2.418 5.527 2.439 5.549l.309.052.064-.308c.734-3.11.915-6.55.202-9.68l-.021-.31.138.16.043.053c1 1.289 2.353 5.218.596 14.718l.064.02.202.065 1.779.51 1.14.416.063.021.117.032c.394-1.768 1.15-6.602.011-11.885l.01-.404.022.01.074.065.107.17c.777 1.597 2.12 6.028 1.928 10.618l.276-.117h.139l1.3.426a39.764 39.764 0 0 1 3.045 1.831l.373.256.053.043.266.17c-.532-2.694-1.895-7.114-4.004-12.268-1.534-3.77-3.43-7.04-4.59-7.955m7.668-48.808v-.447l-.288-1.406-.937-1.086c-.66-.266-1.054-1.235-1.278-2.268-.01-.043-.692-3.76-2.684-6.656-1.384-2.013-4.217-5.24-6.006-5.24l-.586.16c-.106.074-.394.437.17 2.258 0 .032 1.268 4.728 1.662 9.286l.021.32.021.32-.01-.15c.511-1.267 1.48-3.397 2.215-3.94 1.14-.831-1.15 4.036-2.12 8.583l-.053.277c.022.66-.149 1.31-.18 1.97l-.128 1.087-.224-.299.266.362.565.8.639.958.074.106c.384-2.268 1.342-7.156 2.663-9.414l.575.021c-.554 2.513-1.172 7.806-2.034 11.15l.138-.074.618-.33.777-.15.426.054c.98-1.757 2.055-5.485 2.407-6.901.437-1.779.532-.032.5.447-.02.437-.383 4.814-1.65 8.19l-.01-.021c.148.51.33 1.363.553 2.343l.277 1.235.064.309c1.267-1.491 3.567-5.197 3.546-11.555l.01-.298" style="fill:#efc400;fill-opacity:1;stroke-width:10.6496" transform="scale(2)"/><path fill="#e0c070" d="m22.183 60.256.053-.064c.054-2.268.054-6.965-1.31-12.236l-.947-1.161-.298.075-1.108.586-.32.075-.607-.49c-.223-.448-5.442-10.629-9.329-10.629l-.287.021h-.01l-.395.235c-.383.553-.106 2.012.82 4.313l.746 2.193c.681 1.939 1.544 4.367 2.002 6.838l.191 1.235.011.16c.298-.884.607-2.375.66-3.376l.384-1.545.458.384c.458 1.171.042 6.006-1.598 9.382l-.223.416-1.023 2.46.107.096 1.49 1.565.043.053c.65-.66 2.258-2.748 3.248-7.007l.576-4.26.244-.469.426.682c.48 1.331.522 7.934-3.088 12.62l-.735-.842.682.778.223.277 1.46 1.938.244.34c.927-1.501 4.122-7.039 3.856-11.916l.01-.192.043-.373.074-.191.064-.053.16.075.117.16.128.234c1.512 5.143-2.109 12.012-3.11 13.706l.181-.064c1.044-.65 1.598-.597 1.981-.373l.117.096.48-.863c.713-1.33 1.789-3.333 3.11-4.888m2.704 18.614 1.14.235.681-.788.224-.224.064-.053.287-3.28.032-.16.032-.223-.18-.362c-.874-1.81-2.429-6.444-1.577-10.97l.447-.372.192.49c.053 2.705.405 5.57 1.874 7.89l.224.246.107-.266c.404-1.001.883-2.162 1.437-3.11l-.032-.117c-.277-1.076-.703-3.12-.426-4.92l.256-.394.202.532s.277 1.98.863 3.44l.032-.053c4.515-5.857 6.71-8.02 6.741-8.403l-.181-.149-.309-.01c-1.555 0-5.89.628-8.669 2.523l-.947.298-.927-.447-.97-.522c-1.139 0-3.226 1.747-6.006 7.774l.054.118.074.117c1.044 2.162 2.897 6.294 3.6 11.789l.096-.117 1.565-.512m-2.833 2.534.064-.149c-.351-2.407-1.459-7.87-3.983-12.918l-.543-.437-.426.213-1 .426-.757-.468c-.799-1.214-2.673-4.026-4.515-6.07-.15-.182-3.94-4.931-7.572-4.931l-1.747.415-.021.021-.021.021.095.863c.054.064 4.878 5.484 6.656 13.546l.011.053c.66-.937 1.076-2.577 1.534-4.398.372-1.523 1.086-1.32 1.065-.362-.011.852.095 4.11-1.992 8.956l.021.202.032.352c.075 1.278.022 2.982-.085 4.324l.107.053 1.14.617.02.011c.448-.916 1.981-4.292 2.876-8.999 0 0 .735-4.803 1.14-2.737 0 0 .33 7.434-2.067 12.96l.086.065.095.064 1.651 1.14.394.266.277.149.064.043c.447-1.204 1.3-3.877 1.683-6.38l.596-4.483.458-1.182c.522 0 .596 2.503.575 4.42-.032 2.598-1.118 7.529-1.289 8.274l.235.011h.245c.713.043 1.885.117 3.024 1.566l.213.277.01-.064c.246-1.161.97-3.845 1.651-5.73m6.433-23.13v-.02zm-1.97-.01.01.01-.064-1.129c-.074-1.768.128-4.43.735-6.4 1.001-3.238 1.992-4.356 1.992-4.356l.458-.128-.128.607s-2.418 5.954-1.033 11.577l.064-.021.33-.139 1.374-.49.191-.064c-.085-1.917.01-7.582 1.182-10.67l.725-.778.234.799c-.064.66-1.022 5.59-.234 10.064l.117-.032.01-.011.778-.959.873-1.107.043-.053c.127-2.535.33-6.497 1.863-7.551l.512.085-.118.66s-.617 1.757-.724 4.1l-.01 1.001.117-.138c1.778-2.173 4.047-4.43 6.752-6.752l1.991-2.407v.011l-.17-.372-.778-.203-1.448.203-2.907.65-1.374.17-1.907-.735-1.746-2.332-1.044-.586-1.31.362-1.48 1.118-2.971 2.364-.053.31-.054.255c-.617 2.79-2.279 5.75-3.972 7.465l.01.053.022.16c.16 1.65.256 3.908.287 5.9l.256-.203s.97-.788 2.599-.309" style="fill:#efc400;fill-opacity:1;stroke-width:10.6496" transform="scale(2)"/><path fill="#e0c070" d="m34.11 39.117.011-.011-.01.01m1.075.97 1.033 1.501c1.928-1.96 7.36-7.423 12.61-8.999l1.395-.266h.032l.053.011.042.021.043.021.01.043v.011l-.287.32-.138.096-.192.127-.245.139c-1.278.735-8.264 5.037-11.597 9.563h.032c.213.032.66-.02.883-.053l.096-.02c.831-.193 1.97-.448 3.227-.576l.181-.021c1.193-1.874 3.791-4.451 6.954-6.22.224-.106 5.826-2.694 6.422-4.334l.043-.394-.33-.798c-.565-.66-2.098-1.449-6.113-1.449l-1.821.117c-.235-.287-1.31-1.203-3.206-1.203-1.406 0-3.418.554-5.218 1.597l-.01.203c-.14 1.48-.65 2.918-1.31 4.217 2.353-1.46 5.1-3.025 6.794-3.344l.064-.011.51-.032.129.181-1.161.98c-.671.34-5.943 3.472-8.946 6.027l-1.47 1.534 1.491 1.012m2.418-12.344c-.032-1.31-.788-2.386-1.044-2.556l-.01-.298c-.203-1.992-2.205-10.522-4.814-10.31l-.021.012c-.128.02-.757.213-1.087 1.906-.149.745-1.352 6.209-3.035 10.863l-.862 1.895 1.363-.937c1.011-.745 2.438-1.896 3.535-3.003l.98-.66c-.01 0 .788 1.214-6.624 7.284l-.767.48-.021.02.043.192.085.266.096.245.32.373.521.18.213.054c1.235-.98 4.1-3.291 5.825-4.942l.756-.223h.011c.032.02.213.191-.735 1.31 0 0-2.843 3.748-4.707 5.452l.128.703.043.34.031.374c1.268-.693 3.866-2.343 5.24-4.473l.937-.916.022.596c-.096.362-1.076 3.238-6.092 6.582.021 1-.032 2.013-.085 3.024l-.022.31c.384-.278 1.555-1.183 2.63-1.918 2.908-2.45 7.285-6.688 7.147-12.226m-13.248 79.607-1.353-.48-.83.31-.629.745-.841.266-1.129-.213c-2.971-1.182-5.655-1.79-7.987-1.79-2.407 0-3.973.63-5.123 1.076l-.213.085c-1.459.576-2.183 1.087-2.215 1.555l.256.448 4.505 1.49a55.715 55.715 0 0 1 3.578 1.651l.756.384c2.577 1.416 5.07 3.045 7.178 5.111l.83.874 1.417-.916.053-.021c-1.65-1.853-5.463-5.943-7.998-7.561l-.074-.512h.117c1.31.16 4.377 1.609 9.957 7.753l.575-.01.948.031.139.011c-1.076-1.437-3.749-4.867-6.411-6.698l-.192-.405.17.021c1.406.34 4.814 1.949 8.69 7.37l.011.01.99.182 1.055.234.16.043c-.8-1.236-3.046-4.473-6.348-7.37l-.096-.415.213.02c1.48.512 4.867 2.461 8.233 8.297l1.512.458.096.043.692.224.841.266.426.16c-3.685-8.456-11.874-12.684-11.96-12.727m17.477 28.093-.511 1.427-.959 1.8c-1.48.66-6.07 4.154-6.603 7.103l.086.671.276.128h.022l.064-.01c4.962-1.194 15.633-2.13 18.69-2.376l.372-1.118c-1.853-.437-6.815-1.278-11.906.767-1.16.468-.18-.34-.18-.34 1.522-1.077 5.388-2.994 12.63-2.067l.585-1.768c-6.262-.83-9.659.011-11.14.469l-.244-.245c2.641-2.205 8.35-2.12 11.906-1.8l.543-1.672c-3.972-.682-7.401-.16-9.105.16-1.054.191-.139-.213-.139-.213 3.398-1.555 7.061-1.704 9.755-1.491l.118-.352c.521-1.267-.043-1.778-.064-1.8l-.032-.02-7.21.628c-.213.011-5.304.266-6.954 2.12m47.316-14.933.415-2.353-.372-1.022-.064-.011-.203.032-.074.032-.213.053-.394.053-.841-.267-.512-1.49.075-1.492c.17-5.005-1.15-8.626-1.172-8.668l-.479-.362-.756.883c-4.792 12.098-15.218 12.386-17.263 12.386h-1.63c-2.044 0-12.48-.288-17.273-12.386l-.756-.883-.48.362c-.02.043-1.341 3.663-1.17 8.668l.063 1.491-.5 1.491-.842.267-.405-.053-.202-.053-.074-.032-.203-.032-.074.01-.362 1.023.415 2.353c.788 2.471 2.769 5.442 7.018 7.87-.234-.851-.33-1.789-.309-2.822l-2.481-2.332-1.331-1.459-.735-1.533.628.234s2.183 1.927 4.068 3.259l.31-1.726.223-.724c-1.32-1.565-3.28-4.079-3.855-6.006l.085-.607.543.873c.383.682 2.332 2.812 4.185 4.217l1.65-1.118c2.919-1.225 7.083-.106 9.138.905l2.418.032h2.428l2.407-.032c2.044-1.011 6.208-2.13 9.126-.905l1.577 1.044c1.82-1.406 3.716-3.483 4.089-4.143l.543-.873.075.607c-.554 1.874-2.407 4.302-3.728 5.868l.288.862.287 1.609c1.843-1.321 3.909-3.142 3.909-3.142l.628-.234-.735 1.533-1.342 1.46-2.3 2.182c.032 1.033-.053 1.992-.266 2.844 4.1-2.407 6.028-5.314 6.805-7.743m-54.622 20.64.032-.033c1.427-1.693 3.206-3.077 5.101-4.195l.096-.053-.01-.107.191-1.746.064-.128c-5.879-2.94-15.57-4.27-15.666-4.281l-.276-.011c-2.695 0-3.323 2.918-3.419 3.471-8.743 4.324-11.267 10.501-11.289 10.565-.34.958-.383 1.778-.085 2.194l.49.255.266-.053c6.497-2.31 14.793-3.674 18.786-4.025l.181-.021.416-.021-.022-.021 3.025-.224.373-.01h.127l.469.031.021-.053 1.13-1.533" style="fill:#efc400;fill-opacity:1;stroke-width:10.6496" transform="scale(2)"/><path fill="#a27529" d="M66.464 46.177c-16.602 0-30.074 13.472-30.074 30.096 0 16.613 13.472 30.085 30.074 30.085 16.603 0 30.075-13.472 30.075-30.085 0-16.624-13.472-30.096-30.075-30.096" style="fill:#ab7e1b;fill-opacity:1;stroke-width:10.6496" transform="scale(2)"/><path fill="#e0c070" d="M66.464 47.402c-15.932 0-28.86 12.918-28.86 28.871 0 15.943 12.928 28.871 28.86 28.871 15.932 0 28.86-12.929 28.86-28.871 0-15.953-12.928-28.871-28.86-28.871" style="fill:#efc400;fill-opacity:1;stroke-width:10.6496" transform="scale(2)"/><path fill="#d1d3d4" d="m62.982 94.09-.533 1.906-.223.234-.128-.308.351-1.97a17.799 17.799 0 0 1-3.056-1.034l-1.001 1.79-.277.18-.043-.35.831-1.865-2.598-1.544-2.45 3.142-.415.17.01-.468 2.226-3.312-2.087-1.939-1.576 1.417-.33.064.074-.32 1.449-1.586-1.853-2.588-1.907 1.022-.33-.02.15-.3 1.788-1.17a18.56 18.56 0 0 1-1.33-3.057l-1.502.469-.31.138c-1.245.777-1.693 2.599-1.085 4.452.362 1.086 1.501 2.342 2.428 3.024l.617 1.534c-.287 2.95 1.768 4.483 2.013 4.654l.01.01.011.011c.16.118 2.29 1.704 5.08.47l1.619.116c.948.692 2.492 1.385 3.631 1.395 2.237.011 3.94-1.278 3.973-2.96l-.01-1.055a17.788 17.788 0 0 1-3.217-.351M48.264 81.939l1.246-.416a18.567 18.567 0 0 1-.618-3.099l-2.279.107-.287-.15.255-.212 2.269-.32-.075-1.438.086-1.682-2.269-.48-.245-.202.298-.149 2.29.245c.117-1.001.32-1.96.596-2.907l-3.93-1.427-.287-.341.448-.128 4.014 1.129 1.108-2.588-1.928-1.107-.16-.299.33-.02 2.046.936 1.8-2.598-1.566-1.512-.075-.33.32.064 1.693 1.352 2.428-2.279-.852-1.193-.213-.266c-1.118-.98-3.014-.841-4.59.33-.926.671-1.768 2.13-2.13 3.238l-1.267 1.065a5.093 5.093 0 0 0-3.802 3.344l-.01.02v.012c-.065.191-.906 2.694 1.118 4.973l.394 1.587c-.362 1.107-.544 2.79-.192 3.887.681 2.12 2.417 3.344 4.036 2.854m8.062-20.267a17.9 17.9 0 0 1 2.758-1.618l-.756-1.992.053-.33.277.181.927 1.885a18.38 18.38 0 0 1 3.035-.98l-.245-2.108.128-.31.234.246.426 2.055a17.52 17.52 0 0 1 3.003-.32l.139-3.982.234-.384.266.384.15 3.983c.968.02 1.916.117 2.843.298l.426-2.034.234-.245.117.309-.234 2.076a17.59 17.59 0 0 1 3.056.97l.895-1.843.287-.181.043.33-.724 1.928a18.235 18.235 0 0 1 2.897 1.693l.82-1.107.255-.48c.49-1.352-.213-3.024-1.757-4.143-.927-.67-2.588-1.011-3.738-1.011-.959-.032-1.385-.863-1.395-.895-1.502-2.545-4.068-2.588-4.367-2.566h-.031c-.203 0-2.844-.043-4.388 2.588l-1.374.873c-1.171 0-2.822.34-3.749 1.011-1.81 1.31-2.449 3.334-1.47 4.729m34.623 8.04-.011-.01v-.022c-.064-.191-.852-2.715-3.823-3.365l-1.246-1.054c-.362-1.097-1.204-2.577-2.13-3.259-1.8-1.3-3.92-1.278-4.942.064l-.734 1.022 2.321 2.162 1.747-1.384.32-.053-.075.33-1.608 1.544 1.81 2.556 2.077-.937.33.02-.16.299-1.96 1.129 1.183 2.737 4.025-1.172.437.107-.288.373-3.919 1.437.565 2.759 2.268-.235.298.139-.245.202-2.236.458.096 1.842-.064 1.3 2.215.308.256.213-.288.15-2.215-.107a18.323 18.323 0 0 1-.65 3.27l1.598.521.18.117.012-.075c1.48.139 2.928-1.075 3.535-2.96.341-1.097.17-2.769-.191-3.877l.404-1.597a5.116 5.116 0 0 0 1.108-4.952m-5.591 13.866-1.257-.404a17.856 17.856 0 0 1-1.257 2.918l1.843 1.224.149.288-.33.02-1.95-1.032L80 88.168l1.47 1.62.085.319-.33-.064-1.608-1.438-2.194 2.055 2.236 3.323.032.447-.437-.16-2.46-3.13-2.449 1.47.82 1.852-.043.33-.287-.17-.99-1.779c-.97.448-1.992.81-3.057 1.076l.34 1.906-.116.31-.235-.235-.51-1.843a17.72 17.72 0 0 1-3.377.384l-.01 1.395-.043.213.075-.021c.32 1.459 1.927 2.46 3.897 2.45 1.15 0 2.695-.682 3.632-1.364l1.64-.106c2.726 1.182 4.814-.298 5.048-.49l.01-.011.011-.011c.17-.117 2.322-1.63 2.023-4.675l.607-1.502c.948-.692 2.077-1.949 2.44-3.035.702-2.13.02-4.132-1.588-4.697" style="fill:#d4d5d5;fill-opacity:1;stroke-width:10.6496" transform="scale(2)"/><path fill="#6d6e70" d="M66.613 51.47zm0 .096h.022c.5 0 2.854.138 4.26 2.535.042.085.49.894 1.48.926 1.14 0 2.769.352 3.685 1.012 1.512 1.075 2.204 2.705 1.725 4.025l-.256.448-.032.064-.724.98a17.319 17.319 0 0 0-2.747-1.609l.692-1.853-.096-.447-.415.213-.852 1.778a18.512 18.512 0 0 0-2.908-.926l.224-1.97-.192-.415-.351.319-.405 1.928-2.673-.277-.149-3.909-.351-.468h-.011l-.33.479-.139 3.887c-.98.032-1.927.128-2.832.309l-.405-1.96-.352-.308-.202.404.234 2.024a16.959 16.959 0 0 0-2.886.937l-.873-1.832-.415-.224-.096.448.713 1.927-2.609 1.534-.67-.927c-.938-1.33-.32-3.322 1.448-4.58.916-.66 2.556-1.01 3.695-1.01 1.022-.033 1.46-.906 1.46-.906a5.017 5.017 0 0 1 4.28-2.556h.022zm-.063 7.636c9.34 0 16.932 7.731 16.932 17.21 0 9.478-7.593 17.199-16.932 17.199-9.33 0-16.923-7.721-16.923-17.2 0-9.478 7.593-17.21 16.923-17.21M44.515 75.22c.277-.97-.404-1.662-.404-1.662-1.896-2.14-1.257-4.451-1.108-4.888l.01-.032a4.99 4.99 0 0 1 3.728-3.28l1.342-1.129c.352-1.086 1.193-2.524 2.098-3.195 1.544-1.128 3.387-1.267 4.462-.34l.213.255.799 1.118-2.311 2.173-1.619-1.289-.458-.053.086.458 1.49 1.449-1.703 2.47-1.96-.905-.458.064.192.437 1.853 1.054-1.044 2.439-3.93-1.129-.564.213.351.458 3.834 1.384a20.39 20.39 0 0 0-.564 2.759l-2.183-.235-.416.235.33.308 2.184.437-.075 1.619.064 1.363-2.183.309-.33.309.394.234 2.183-.096c.117.99.309 1.98.586 2.94l-1.161.372c-1.566.48-3.259-.714-3.92-2.79-.34-1.065-.159-2.737.193-3.834m17.763 23.13h-.032c-1.129 0-2.652-.68-3.578-1.373l-1.715-.117a4.988 4.988 0 0 1-4.984-.469l-.16-.138v.02c-.564-.457-2.087-1.916-1.831-4.45l-.65-1.63c-.926-.67-2.045-1.906-2.396-2.982-.596-1.8-.17-3.578 1.033-4.334l.288-.128 1.416-.447a17.27 17.27 0 0 0 1.267 2.896l-1.704 1.14-.191.415.468.064 1.81-.98 1.769 2.46-1.385 1.513-.085.458.468-.053 1.502-1.364 1.97 1.822-2.183 3.248.01.607.224.043.33-.245 2.397-3.057 2.449 1.449-.799 1.8.096.457.405-.213.958-1.725c.916.405 1.885.735 2.897.99l-.33 1.875.202.426.34-.309.501-1.821c.959.202 1.992.32 3.057.34v.96c-.021 1.618-1.672 2.853-3.834 2.853m20.799-6.507a4.982 4.982 0 0 1-1.992 4.58l-.021.02a4.981 4.981 0 0 1-4.941.47l-1.747.117c-.927.681-2.45 1.363-3.568 1.363h-.032c-1.906 0-3.46-.97-3.78-2.386l-.021-.085h-.011l.01-.085.011-1.3a16.677 16.677 0 0 0 3.206-.372l.49 1.757.34.31.203-.416-.33-1.832a17.349 17.349 0 0 0 2.907-1.012l.948 1.694.405.213.095-.458-.788-1.768 2.311-1.385 2.407 3.057.565.18.095-.393-.106-.192-2.183-3.237 2.076-1.95 1.523 1.385.469.053-.075-.447-1.416-1.544 1.725-2.46 1.875 1.011.468-.064-.18-.426-1.769-1.16c.448-.852.852-1.779 1.182-2.77l1.172.373c1.555.544 2.215 2.492 1.533 4.57-.362 1.075-1.49 2.31-2.417 2.981l-.639 1.608m5.548-16.539c.352 1.087.533 2.748.192 3.813-.586 1.842-2.002 3.024-3.429 2.897l-.096-.011-.01.01-.075-.042-1.491-.48h-.021c.298-1.033.51-2.087.617-3.11l2.13.097.394-.224-.34-.32-2.141-.287.01-.053.054-1.182-.085-1.768 2.15-.426.331-.32-.34-.234h-.065l-2.183.235-.532-2.599 3.844-1.395.34-.49-.553-.181-3.94 1.14-1.118-2.578 1.874-1.075.192-.437-.448-.064-2.002.927-1.714-2.45 1.544-1.48.085-.458-.458.043-1.672 1.331-2.204-2.055.681-.937c.99-1.31 3.057-1.321 4.814-.043.905.67 1.736 2.119 2.098 3.216l1.32 1.107a4.984 4.984 0 0 1 3.749 3.302l.01.02c.15.448.789 2.759-1.086 4.868l-.426 1.693m.874-.266.213-.81c2.417-2.715 1.33-5.665 1.288-5.782-.096-.32-1.022-3.174-4.451-3.92l-.629-.51c-.383-1.183-1.32-2.834-2.428-3.654-1.501-1.086-3.27-1.395-4.664-.798.16-1.534-.692-3.142-2.237-4.27-1.118-.81-2.96-1.172-4.206-1.172l-.703-.458c-1.832-3.131-4.963-3.014-5.09-3.003-.33-.021-3.334-.011-5.102 3.024l-.681.437c-1.246 0-3.1.362-4.218 1.171-1.501 1.097-2.343 2.673-2.215 4.196-1.395-.618-3.195-.32-4.739.81-1.107.82-2.023 2.46-2.407 3.642l-.65.522c-3.546.777-4.398 3.79-4.43 3.919-.117.308-1.043 3.163 1.29 5.793l.212.788c-.383 1.182-.607 3.057-.192 4.366.565 1.779 1.821 3.057 3.302 3.398-1.023 1.15-1.289 2.939-.692 4.77.426 1.31 1.703 2.684 2.705 3.42l.298.787c-.352 3.621 2.257 5.346 2.364 5.41.256.224 2.684 1.992 5.9.575l.81.043c1.01.735 2.715 1.523 4.1 1.523h.02c1.854 0 3.451-.788 4.229-2.076.766 1.31 2.385 2.119 4.28 2.119h.033c1.373 0 3.088-.788 4.089-1.512l.83-.043c3.334 1.459 5.794-.49 5.89-.565.277-.202 2.705-1.949 2.353-5.452l.288-.757c1.022-.734 2.3-2.119 2.737-3.429.575-1.778.32-3.546-.67-4.707 1.5-.309 2.768-1.608 3.354-3.44.415-1.31.202-3.163-.181-4.345" style="fill:#6a6c6c;fill-opacity:1;stroke-width:10.6496" transform="scale(2)"/><path fill="#d1d3d4" d="M83.578 76.412c0-9.543-7.636-17.296-17.028-17.296-9.393 0-17.04 7.753-17.04 17.296 0 9.53 7.647 17.294 17.04 17.294 9.392 0 17.028-7.763 17.028-17.294" style="fill:#d4d5d5;fill-opacity:1;stroke-width:10.6496" transform="scale(2)"/><path fill="#a27529" d="M66.464 102.29c-14.355 0-25.995-11.661-25.995-26.028 0-14.377 11.64-26.017 25.995-26.017 14.356 0 26.007 11.64 26.007 26.017 0 14.367-11.651 26.028-26.007 26.028m27.998-24.569 1.449-.66.244-.81-.798-.596-1.076.724-.83.213.01-.33-.053-1.693.99-.767 1.332-.852.138-.82-.884-.49-.958.863-.789.33-.33-2.023.884-.874 1.204-1.022.021-.852-.948-.362-.83 1.001-.735.437-.607-1.95.745-.99 1.054-1.182-.095-.84-.99-.225-.682 1.108-.66.522-.874-1.821.596-1.119.874-1.31-.213-.82-1.001-.084-.522 1.192-.586.618-1.107-1.661.426-1.214.681-1.417-.33-.788-1.001.053-.362 1.246-.49.714-1.32-1.491.255-1.268.469-1.512-.426-.724-.99.192-.16 1.288-.405.778-1.523-1.3.074-1.288.267-1.555-.533-.682-.948.341.01 1.3-.287.82-1.693-1.076-.096-1.289.043-1.565-.618-.586-.894.458.191 1.278-.17.862-1.832-.851-.256-1.236-.18-1.587-.693-.49-.83.586.372 1.257-.053.862-1.927-.585-.426-1.204-.405-1.512-.746-.394-.734.682.532 1.182.075.873-1.97-.298-.618-1.14-.607-1.448-.799-.288-.639.788.703 1.087.192.862-1.3-.043-.681.021-.778-1.054-.809-1.342-.83-.17-.512.852.841.99.31.82-1.982.256-.905-.927-.98-1.235-.851-.043-.395.916.98.873.416.767-1.95.532-.99-.788-1.15-1.097-.852.064-.255.99 1.086.714.522.682-1.864.81-1.086-.64-1.3-.916-.82.192-.117.99 1.172.565.607.618-1.715 1.043-1.182-.468-1.406-.735-.798.298.02 1.012 1.247.394.681.522-1.533 1.267-1.257-.298-1.49-.533-.746.405.16 1.001 1.288.213.756.426-1.352 1.47-1.278-.128-1.555-.309-.682.5.299.97 1.299.032.799.308-1.14 1.662-1.278.043-1.576-.096-.607.596.437.927 1.299-.15.83.192-.905 1.81-1.256.203-1.576.128-.512.681.554.842 1.267-.32.852.074-.65 1.95-1.203.35-1.544.352-.415.735.66.756 1.204-.49.862-.043-.394 2.002-1.118.533-1.48.553-.32.8.767.66 1.118-.66.841-.16-.095 2.023-1.044.681-1.385.767-.202.831.852.543 1.022-.81.8-.266.19 2.035-.936.809-1.268.948-.085.852.916.415.895-.948.756-.373.49 2.003-.82.915-1.13 1.119.033.841.969.288.767-1.044.681-.48.756 1.918-.681 1.022-.959 1.257.16.82 1.001.16.596-1.15.618-.565 1.022 1.8-.532 1.096-.788 1.374.287.81 1.002.01.436-1.224.533-.65 1.267 1.662-.383 1.14-.576 1.48.373.766 1.001-.128.266-1.288.437-.714 1.48 1.47-.213 1.182-.372 1.544.479.703.98-.266.074-1.3.341-.777 1.672 1.257-.053 1.203-.15 1.566.576.639.926-.416-.096-1.278.213-.798 1.843 1 .106 1.172.075 1.598.65.532.862-.522-.277-1.267.107-.83 1.97.745.266 1.16.288 1.556.724.436.777-.639-.447-1.214-.01-.82 2.044.447.437 1.097.5 1.513.778.34.681-.734-.617-1.15-.118-.82 2.077.16.597 1.043.702 1.416.82.234.575-.83-.777-1.044-.234-.81 2.098-.116.713.947.905 1.31.831.107.458-.905-.905-.927-.34-.745 2.054-.426.842.841 1.065 1.16.852-.01.32-.948-1.023-.788-.447-.692 1.97-.714.958.724 1.225 1.001.83-.127.192-.99-1.129-.65-.532-.629 1.842-.958 1.055.575 1.352.82.81-.245.053-.99-1.214-.48-.618-.564 1.683-1.204 1.14.416 1.458.628.767-.351-.085-1.012-1.268-.298-.702-.458 1.501-1.427 1.204.245 1.512.426.713-.458-.234-.98-1.289-.128-.756-.362 1.3-1.619 1.214.085 1.565.203.64-.543-.363-.948-1.3.053-.798-.245 1.065-1.8 1.203-.075 1.577-.011.564-.639-.49-.884-1.278.224-.83-.128.809-1.917 1.171-.245 1.566-.234.468-.714-.607-.81-1.235.416-.841-.02.522-1.992 1.15-.426 1.512-.458.362-.767-.713-.703-1.161.575-.842.096.224-2.023 1.086-.607" style="fill:#ab7e1b;fill-opacity:1;stroke-width:10.6496" transform="scale(2)"/><path fill="#e31f26" d="M74.899 63.888c-6.795-4.548-15.953-2.812-20.64 3.844l-.223.309-.202.33a7.497 7.497 0 0 0 2.279 10.107c3.45 2.31 8.126 1.373 10.426-2.077 2.31-3.45 6.975-4.377 10.437-2.077 3.343 2.237 4.313 6.699 2.279 10.117 4.345-6.88 2.438-15.995-4.356-20.554" style="fill:#dc1417;fill-opacity:1;stroke-width:10.6496" transform="scale(2)"/><path fill="#0054a6" d="M76.965 74.335c-3.45-2.311-8.126-1.395-10.426 2.066a7.526 7.526 0 0 1-10.437 2.077 7.512 7.512 0 0 1-2.279-10.107c-4.355 6.88-2.45 15.996 4.356 20.554 6.794 4.537 15.953 2.811 20.639-3.845l.224-.32.202-.319c2.045-3.418 1.065-7.88-2.28-10.106" style="fill:#004999;fill-opacity:1;stroke-width:10.6496" transform="scale(2)"/><path fill="#e0c070" d="M107.497 118.966c3.579 0 4.25 1.832 4.526 2.62l.086.213c5.016.192 10.628 2.758 10.681 4.42.01.373-.255.852-1.608.98-2.609.255-9.17 1.363-12.673 2.023l-.447-.011c-3.27.053-6.443.969-9.532 1.97l-.17.053c-1.395.447-2.929.937-4.356 1.512l-1.182.5-.82.373-.042.022-.011-.011c-1.416-1.087-3.27-1.204-4.973-1.449l-.075-.01c-2.3-.278-5.154-.48-7.252-.597l1.086-.607.149-.139.33-.479c1.779-.692 4.004-1.864 5.932-3.908l.756-.863.256-.32c7.135-4.068 16.038-5.9 16.134-5.91 1.193-.245 2.279-.383 3.205-.383M94.888 93.226l.586-.223.735.18c4.824 3.196 3.834 8.148 3.823 8.19l.096.682.5.245.405-.16 1.278-.692.703.33c1.086 1.203.862 5.89.767 7.21l-.16.127-.266.203c-5.474 4.483-7.583 9.51-8.169 11.278l-.65.234c-1.81.682-3.78 1.448-4.781 1.885l.138-.266c.565-1.289.948-2.716.959-4.132l2.556-2.311a43.983 43.983 0 0 0 2.96-3.131l.629-.756 1.416-2.013 1.044-2.024.266-.852.117-.65-.042-.372-.384.32-.202.351-.426.714-1.502 2.066c-1.235 1.682-4.93 5.175-6.634 6.773l-.011-.053-.01-.075-.863-.448-.17.011-.427.032-.17.021-.128.021c7.06-7.742 7.955-10.138 8.552-12.076l.01-.447v-.011l-.02-.011-.32.362-1.161 1.735a44.441 44.441 0 0 1-2.013 2.663l-1.96 2.226-.117.127-1.757 1.779-1.097.99-.51.437v-.128l.01-.99-.032-1.214-.01-.277-.011-.128c4.046-5.4 6.176-11.342 6.198-16.816l.255-.937" style="fill:#efc400;fill-opacity:1;stroke-width:10.6496" transform="scale(2)"/><path fill="#e0c070" d="M106.368 96.624c-1.139 1.065-2.822 2.535-4.536 3.291l-.022-.16-.308-1.341.479-.5c1.15-1.247 2.172-2.546 3.216-3.877l1.725-2.482c.937-1.416 1.768-2.94 2.311-4.366l.01-.043.065-.33.01-.032-.074-.32-.107-.01-.99 1.31c-.65.787-5.101 6.943-7.39 8.668l-.022-.043-.085-.192-.096-.18c.287-.885.82-2.418 1.043-4.016l1.417-2.45.479-.883.639-1.182.99-1.928.554-1.267v-.895h-.01l-.064.011-.054.011-.436.352-.15.223-.148.299c-.288.628-1.96 2.928-3.025 4.377v-.192c.032-3.962-1.789-11.566-1.608-12.013l.458-.191 1.683.745a115.328 115.328 0 0 1 2.928 2.641l1.81.884 1.108-.213.874.596c.447.852 1.82 5.016 2.396 7.7l-.043.053-.48.873c-.904 1.651-1.842 3.632-2.544 5.219l-.416.32-1.587 1.533m-1.405 6.209-1.193-2.428 3.067-2.63.373-.299-.096.224c-.586 1.512-1.608 4.516-2.109 6.209l-.01-.522-.032-.554m9.158-15.367 1.96-.32c1.448.597 2.737-.873 2.737-.873 1.693-1.917 5.07-4.185 9.19-5.282l2.205-.288-.234.81c-1.257 1.214-5.56 7.241-8.328 11.554l-.192.32-.192-.703c-.351-1.31-.67-4.057-.575-5.644v-.064l-.053.053c-.48.586-1.48 2.513-.405 7.849l.064.287-.032.043c-1.906 3.227-2.417 5.527-2.439 5.549l-.308.052-.064-.308c-.735-3.1-.916-6.56-.203-9.68l.022-.31-.139.16-.042.053c-1.001 1.289-2.354 5.218-.597 14.718l-.064.02-.202.065-1.778.51-1.14.416-.064.021-.117.032c-.394-1.768-1.15-6.602-.01-11.885l-.011-.404-.022.01-.074.065-.107.17c-.777 1.597-2.119 6.028-1.927 10.618l-.277-.117h-.139l-1.299.426a39.763 39.763 0 0 0-3.046 1.831l-.372.256-.054.043-.266.17c.533-2.694 1.896-7.114 4.005-12.268 1.533-3.77 3.429-7.04 4.59-7.955" style="fill:#efc400;fill-opacity:1;stroke-width:10.6496" transform="scale(2)"/><path fill="#6d6e70" d="m62.066 11.097-.618-.628.927-1.97c.064-1.108-.32-2.087-1.054-2.705.053-.756.01-2.162-.927-3.184-.49-.533-1.427-1.172-3.099-1.172-.373-.415-1.14-1.012-2.61-1.044h-.18l-1.81.554-2.152-.937-.34-.011-2.184.884-.841-.032-2.226.756-.916 2.226-.99.639-.607 2.055L40.532 8.2c-.5.959-.617 2.29.139 3.29-.032.693.064 1.747.745 2.738l1.566 1.395-4.973 8.243s-.895 2.044.18 3.429c0 0 1.374 1.98 4.388-1.086 0 0 2.332-2.95 4.771-5.868 1.076.777 2.247.884 2.908.873l.5-.043 1.598.415 1.831-.532 1.608-2.183.341.01.724-.127 1.268-.863.777.085 2.3-1 .66-2.834c.48-.66 1.044-1.757.203-3.046" style="fill:#6a6c6c;fill-opacity:1;stroke-width:10.6496" transform="scale(2)"/><path fill="#d1d3d4" d="m45.58 15.292.66-.17 1.481-2.396-1.576-2.013-1.491-.256-.394.021.096-.138.894-.352 1.928.341c-1.012-1.704-3.025-2.833-4.1-2.769L41.384 8.7s-.788 1.47.373 2.31c0 0-.958 3.632 3.823 4.282m1.055 1.331.128-.628 2.268-1.533 2.109 1.299.362 1.374v.372l.127-.096.277-.862-.458-1.757c1.768.809 3.014 2.598 3.035 3.588l-1 1.651s-1.417.83-2.333-.17c0 0-3.525 1.129-4.515-3.238m9.382-10.032-.192 1.246c-1.203 1.896-4.59 4.857-5.612 5.73l-1.512-.16.021-2.172 3.6-3.078 3.056-1.778h.053l.586.213m-9.233.671s1.64.107 3.259 1.353l.223-.213c-1.256-2.3-2.992-3.706-2.992-3.706 1.778.98 2.97 2.652 3.397 3.312l.096-.085c.053-.554.064-1.725-.565-3.323 0 0 .724 1.15 1.044 2.737 1.65-2.417 1.033-4.622.852-5.133l-.139-.298v-.011L50.373.969c-.97-.053-1.502.469-1.619.65l-.735.309-2.385.33-.416 1.821-.18.522-.523.213-.734.309-.267 1.171c1.672.181 3.92 1.662 4.974 3.664l.905-.735.245-.234a10.378 10.378 0 0 0-2.854-1.726m14.068 6.55.426-1.917-.927-.65h-.01l-1.32-.287c-1.13-.096-2.535.085-3.803.532a12.907 12.907 0 0 1 2.034 1.172 10.972 10.972 0 0 0-2.428-1.012l-.32.128-.287.138c.81.48 2.333 1.534 3.28 3.067 0 0-1.437-1.597-3.77-2.747l-.255.192c1.14 1.448 1.278 2.875 1.278 2.875a9.344 9.344 0 0 0-1.704-2.545l-.48.394-.734.66 2.194 1.289a5.152 5.152 0 0 1 1.618 2.524l1.001.138.788-.692.405-.426.586.043 2.151-.416.234-1.703.043-.757" style="fill:#d4d5d5;fill-opacity:1;stroke-width:10.6496" transform="scale(2)"/><path fill="#d1d3d4" d="m60.532 6.497-.287-.65c0-.021.287-1.65-.586-2.63-.511-.565-1.363-.82-2.524-.746h-.01l-.618-.362c-.01-.021-.373-.703-1.779-.735l-1.363.415c.17.512.629 2.194-.032 4.228l1.8-.564.032-2.013s.469.83.373 2.034l.905.352c.458-.437 1.342-1.172 2.364-1.523 0 0-1.033.83-1.896 1.991l.256 1.097c1.214-.106 2.055.245 2.055.245l-2.119.107-.426.98L55.708 10c1.225-.308 2.46-.394 3.472-.308l1.256.223.938-1.555-.842-1.863M45.687 16.39l-1.821-.255-4.942 8.317.778 1.842 2.13-.585 4.643-6.156s-.873-1.821-.788-3.163" style="fill:#d4d5d5;fill-opacity:1;stroke-width:10.6496" transform="scale(2)"/><path fill="#6d6e70" d="M94.941 23.886 90 15.633l1.566-1.395c.67-1.001.766-2.055.734-2.737.746-1.001.64-2.343.139-3.312l-1.896-1.65-.596-2.056-.98-.64c0-.958-.309-1.703-.905-2.236L85.847.841l-.82.053L82.854.01h-.33l-2.14.937-1.79-.543h-.18c-1.46.032-2.227.607-2.589 1.043-1.672 0-2.598.629-3.077 1.161-.927 1.033-.98 2.428-.916 3.184-.735.629-1.118 1.62-1.055 2.705l.927 1.981-.618.629c-.83 1.288-.277 2.385.203 3.035-.394.958-.16 2.023.65 2.843l2.278 1.012.778-.085 1.267.841.714.128.34-.02 1.587 2.204 1.821.532 1.576-.405.5.032c.65.021 1.822-.085 2.876-.884a279.454 279.454 0 0 1 4.729 5.868c2.992 3.078 4.355 1.097 4.355 1.097 1.065-1.395.181-3.418.181-3.418" style="fill:#6a6c6c;fill-opacity:1;stroke-width:10.6496" transform="scale(2)"/><path fill="#d1d3d4" d="m87.433 15.292-.65-.17-1.48-2.396 1.577-2.013 1.47-.256.393.021-.095-.138-.884-.352-1.907.341c1.001-1.704 2.993-2.833 4.047-2.769l1.693 1.14s.767 1.47-.372 2.31c0 0 .937 3.632-3.792 4.282m-1.043 1.331-.128-.628-2.247-1.533-2.087 1.299-.352 1.374-.01.372-.128-.096-.277-.862.458-1.757c-1.747.809-2.993 2.598-3.014 3.588l1.001 1.651s1.406.83 2.311-.17c0 0 3.493 1.129 4.473-3.238M77.082 6.591l.181 1.246c1.203 1.896 4.558 4.857 5.57 5.73l1.501-.16-.02-2.172-3.569-3.078-3.024-1.778h-.064l-.575.213m12.13-1.469-.724-.309-.522-.202-.181-.533-.415-1.81-2.354-.33-.735-.31c-.106-.19-.65-.713-1.608-.66l-1.565.948-.15.31c-.17.5-.777 2.694.852 5.111.32-1.587 1.033-2.737 1.033-2.737-.617 1.608-.607 2.769-.553 3.323l.085.085c.426-.66 1.608-2.333 3.376-3.312 0 0-1.725 1.416-2.971 3.695l.223.224c1.608-1.246 3.227-1.353 3.227-1.353A9.576 9.576 0 0 0 83.408 9l.245.234.894.746c1.044-2.024 3.27-3.493 4.92-3.674l-.255-1.182M80.5 13.163l-.468-.404c-.458.51-1.16 1.363-1.693 2.534 0 0 .138-1.406 1.267-2.865l-.245-.18c-2.31 1.15-3.749 2.736-3.749 2.736.948-1.522 2.45-2.587 3.26-3.077l-.288-.139-.31-.117c-.574.15-1.405.447-2.417 1.012 0 0 .82-.618 2.013-1.15-1.246-.458-2.641-.64-3.76-.533l-1.31.277h-.01l-.916.628.416 1.939.053.756.224 1.704 2.13.426.585-.043.394.415.788.682.99-.139c.278-.958.81-1.81 1.609-2.535l2.172-1.267-.734-.66" style="fill:#d4d5d5;fill-opacity:1;stroke-width:10.6496" transform="scale(2)"/><path fill="#d1d3d4" d="m76.006 7.743-2.087-.107s.83-.351 2.034-.245l.256-1.086c-.863-1.16-1.885-2.002-1.885-2.002 1.011.351 1.885 1.097 2.343 1.533l.894-.351c-.096-1.214.373-2.045.373-2.045l.032 2.024 1.778.564c-.65-2.045-.202-3.717-.032-4.228l-1.352-.415c-1.384.032-1.747.713-1.757.735l-.618.362c-1.15-.075-1.991.17-2.503.735-.873.98-.585 2.62-.585 2.64l-.288.64-.83 1.874.926 1.544 1.246-.223c1.001-.096 2.226 0 3.44.308l-.959-1.267-.426-.99m11.321 8.647 1.8-.255 4.899 8.317-.767 1.842-2.109-.585-4.611-6.156s.873-1.821.788-3.163" style="fill:#d4d5d5;fill-opacity:1;stroke-width:10.6496" transform="scale(2)"/><path fill="#e0c070" d="M31.715 14.59c-.235.032-.746.15-1.097 1.896.34-1.672.958-1.874 1.097-1.896m4.835 10.288c-.203-1.97-2.216-10.639-4.814-10.288 2.61-.213 4.611 8.328 4.814 10.288m64.675-10.288c.234.032.745.15 1.097 1.896-.341-1.672-.959-1.874-1.097-1.896M96.39 24.878c.202-1.97 2.215-10.639 4.813-10.288-2.609-.213-4.61 8.328-4.813 10.288" style="stroke-width:10.6496" transform="scale(2)"/><path fill="#e0c070" d="M106.454 38.658v-.447l.287-1.406.937-1.086c.66-.266 1.055-1.235 1.278-2.268.01-.043.693-3.76 2.684-6.656 1.385-2.013 4.217-5.24 6.006-5.24l.586.16c.107.074.394.437-.17 2.258 0 .032-1.268 4.728-1.662 9.286l-.02.32-.022.32.01-.15c-.51-1.267-1.48-3.397-2.215-3.94-1.14-.831 1.15 4.036 2.12 8.583l.053.277c-.021.682.138 1.204.18 1.97l.129 1.087.223-.299-.266.362-.564.8-.64.958-.074.106c-.383-2.268-1.342-7.156-2.662-9.414l-.575.021c.553 2.513 1.171 7.806 2.034 11.15l-.139-.074-.617-.33-.778-.15-.426.054c-.98-1.757-2.055-5.485-2.407-6.901-.436-1.779-.532-.032-.5.447.021.437.383 4.814 1.65 8.19l.011-.021c-.149.51-.33 1.363-.554 2.343l-.277 1.235-.063.309c-1.268-1.491-3.568-5.197-3.547-11.555l-.01-.298" style="fill:#efc400;fill-opacity:1;stroke-width:10.6496" transform="scale(2)"/><path fill="#e0c070" d="m110.756 60.256-.053-.064c-.053-2.268-.053-6.965 1.31-12.236l.948-1.161.298.075 1.107.586.32.075.607-.49c.224-.448 5.442-10.629 9.329-10.629l.288.021h.01l.394.235c.384.553.107 2.012-.82 4.313l-.745 2.194c-.682 1.938-1.545 4.366-2.002 6.837l-.192 1.235-.01.16c-.299-.884-.608-2.375-.661-3.376l-.383-1.544-.458.383c-.458 1.171-.043 6.006 1.597 9.382l.224.416 1.022 2.46-.106.096-1.491 1.565-.043.053c-.65-.66-2.258-2.747-3.248-7.007l-.575-4.26-.245-.469-.426.682c-.48 1.331-.522 7.934 3.088 12.62l.735-.842-.681.778-.224.277-1.46 1.938-.244.34c-.927-1.501-4.121-7.039-3.855-11.916l-.01-.192-.043-.373-.075-.191-.064-.053-.16.075-.117.16-.127.234c-1.513 5.143 2.108 12.012 3.11 13.706l-.182-.064c-1.043-.65-1.597-.597-1.98-.373l-.118.096-.479-.863c-.714-1.33-1.79-3.333-3.11-4.888m-2.705 18.614-1.14.235-.681-.788-.224-.224-.064-.053-.287-3.28-.032-.16-.032-.223.181-.362c.873-1.81 2.428-6.444 1.576-10.97l-.447-.372-.192.49c-.053 2.705-.394 5.57-1.874 7.89l-.224.246-.106-.266c-.405-1.001-.884-2.162-1.438-3.11l.032-.117c.277-1.076.703-3.12.426-4.92l-.255-.394-.203.532s-.277 1.98-.862 3.44l-.032-.053c-4.516-5.857-6.71-8.02-6.741-8.403l.18-.149.31-.01c1.554 0 5.889.628 8.668 2.523l.948.298.927-.447.969-.522c1.14 0 3.226 1.747 6.006 7.774l-.053.118-.075.117c-1.043 2.162-2.896 6.294-3.6 11.789l-.095-.117-1.566-.511m2.833 2.533-.064-.149c.351-2.407 1.459-7.87 3.983-12.918l.543-.437.426.213 1.001.426.756-.468c.799-1.214 2.673-4.026 4.516-6.07.149-.182 3.94-4.931 7.572-4.931l1.746.415.021.021.022.021-.096.863c-.053.064-4.878 5.484-6.656 13.546l-.01.053c-.66-.937-1.076-2.577-1.534-4.398-.373-1.523-1.086-1.32-1.065-.362.01.852-.096 4.11 1.991 8.956l-.021.202-.032.352c-.074 1.278-.021 2.982.085 4.323l-.106.053-1.14.618-.021.011c-.447-.916-1.98-4.292-2.875-8.999 0 0-.735-4.803-1.14-2.737 0 0-.33 7.434 2.066 12.96l-.085.065-.096.064-1.65 1.14-.395.266-.276.149-.064.043c-.448-1.204-1.3-3.877-1.683-6.38l-.596-4.483-.458-1.182c-.522 0-.597 2.503-.575 4.42.031 2.598 1.118 7.529 1.288 8.274l-.234.011h-.245c-.714.043-1.885.117-3.025 1.566l-.213.277-.01-.064c-.245-1.161-.97-3.845-1.65-5.73m-6.433-23.13v-.02.02m4.568.298.256.203c.032-1.992.128-4.25.287-5.9l.022-.16.01-.053c-1.693-1.714-3.354-4.675-3.972-7.465l-.043-.256-.064-.309-2.97-2.364-1.481-1.118-1.31-.362-1.044.586-1.746 2.332-1.906.735-1.374-.17-2.908-.65-1.448-.203-.777.203-.17.372v-.01l1.99 2.406c2.706 2.322 4.974 4.58 6.753 6.752l.117.138-.01-1c-.107-2.344-.725-4.1-.725-4.1l-.117-.661.511-.085c1.534 1.054 1.736 5.016 1.864 7.55l.042.054.874 1.107.777.959.01.01.118.033c.788-4.473-.17-9.404-.235-10.064l.235-.8.724.778c1.171 3.089 1.267 8.754 1.182 10.671l.192.064 1.373.49.33.139.065.02c1.384-5.622-1.034-11.576-1.034-11.576l-.127-.607.458.128s.99 1.118 1.991 4.356c.607 1.97.81 4.633.735 6.4l-.064 1.13.01-.012c1.63-.479 2.6.31 2.6.31" style="fill:#efc400;fill-opacity:1;stroke-width:10.6496" transform="scale(2)"/><path fill="#e0c070" d="m98.829 39.106.01.01-.01-.01m.426-.032-1.47-1.534c-3.003-2.556-8.275-5.687-8.946-6.027l-1.171-.99.138-.171.511.032.054.01c1.704.32 4.451 1.886 6.805 3.345-.66-1.3-1.182-2.727-1.31-4.217l-.021-.213c-1.79-1.023-3.802-1.587-5.208-1.587-1.896 0-2.982.926-3.206 1.203l-1.831-.117c-4.005 0-5.528.788-6.103 1.448l-.34.81.053.372c.596 1.651 6.198 4.239 6.422 4.345 3.152 1.768 5.761 4.345 6.954 6.22l.18.032c1.247.128 2.397.383 3.228.564l.096.021c.255.021.65.085.884.053h.031c-3.333-4.526-10.32-8.818-11.608-9.563l-.234-.139-.192-.127-.138-.096-.288-.32v-.01l.011-.044.032-.032.053-.01.053-.012h.032l1.395.266c5.25 1.587 10.682 7.05 12.599 9l1.044-1.502 1.49-1.012m-3.919-11.329c.032-1.31.789-2.386 1.044-2.556l.01-.298c.203-1.992 2.205-10.522 4.814-10.31l.022.012c.127.02.756.213 1.086 1.906.149.745 1.352 6.209 3.035 10.863l.863 1.895-1.363-.937c-1.012-.745-2.44-1.896-3.536-3.003l-.98-.66c.01 0-.788 1.214 6.624 7.284l.767.48.021.02-.042.192-.086.266-.095.245-.32.373-.522.18-.213.054c-1.235-.98-4.1-3.291-5.814-4.942l-.767-.223h-.01c-.033.02-.214.191.734 1.31 0 0 2.844 3.748 4.718 5.452l-.139.703-.042.34-.032.374c-1.267-.693-3.866-2.343-5.24-4.473l-.937-.916-.021.596c.096.362 1.075 3.238 6.091 6.582-.02 1 .032 2.012.086 3.024l.02.31c-.382-.278-1.554-1.183-2.63-1.918-2.907-2.45-7.284-6.688-7.145-12.226m13.248 79.607 1.352-.48.83.31.63.745.84.266 1.13-.213c2.97-1.182 5.654-1.79 7.987-1.79 2.406 0 3.972.63 5.122 1.076l.213.085c1.459.576 2.172 1.087 2.204 1.555l-.255.448-4.494 1.49a55.714 55.714 0 0 0-3.579 1.651l-.756.384c-2.577 1.416-5.069 3.045-7.178 5.111l-.83.874-1.417-.916-.053-.021c1.65-1.853 5.463-5.943 7.998-7.561l.075-.512h-.118c-1.31.16-4.377 1.609-9.957 7.753l-.575-.01-.948.031-.138.011c1.075-1.437 3.748-4.867 6.41-6.698l.192-.405-.17.021c-1.406.34-4.814 1.949-8.69 7.37l-.01.01-.991.182-1.054.234-.16.043c.799-1.236 3.046-4.473 6.347-7.37l.096-.415-.213.02c-1.48.512-4.867 2.461-8.232 8.297l-1.513.458-.095.043-.693.224-.841.266-.426.16c3.685-8.456 11.874-12.684 11.96-12.727m-17.476 28.093.51 1.427.96 1.8c1.48.66 6.07 4.154 6.602 7.103l-.085.671-.277.128h-.021l-.064-.01c-4.963-1.194-15.634-2.13-18.69-2.376l-.373-1.118c1.853-.437 6.816-1.278 11.906.767 1.161.468.181-.34.181-.34-1.523-1.077-5.378-2.994-12.63-2.067l-.586-1.768c6.262-.83 9.66.011 11.14.469l.244-.245c-2.64-2.205-8.349-2.12-11.895-1.8l-.554-1.672c3.972-.682 7.402-.16 9.105.16 1.055.191.139-.213.139-.213-3.397-1.555-7.06-1.704-9.755-1.491l-.117-.352c-.522-1.267.042-1.778.064-1.8l.032-.02 7.21.628c.212.011 5.303.266 6.954 2.12m7.305 5.707-.032-.033c-1.427-1.693-3.205-3.077-5.1-4.195l-.097-.053.01-.107-.19-1.746-.065-.128c5.879-2.94 15.57-4.27 15.666-4.281l.277-.011c2.694 0 3.322 2.918 3.418 3.471 8.744 4.324 11.278 10.501 11.3 10.565.33.958.372 1.778.074 2.194l-.48.255-.265-.053c-6.507-2.31-14.803-3.674-18.797-4.025l-.181-.021-.415-.021.02-.021-3.024-.224-.372-.01h-.128l-.469.031-.021-.053-1.129-1.533" style="fill:#efc400;fill-opacity:1;stroke-width:10.6496" transform="scale(2)"/><path fill="#a27529" d="m32.29 96.198-.086.182c-.457 1.139-.958 2.3-1.096 3.535l-.032.202-.16-.032-.575-.052-.629.084-.532.277-.01.011-1.193 2.428-.032.554-.022.522-.096 4.068.096.075 1.033.767.203.16c-.096-1.31-.32-6.007.777-7.21l.692-.32 1.289.693.394.16.511-.256.085-.66c-.01-.053-1-5.006 3.824-8.2l.734-.182.586.224.266.948c.022 5.463 2.14 11.395 6.198 16.805l.064-.916.096-.841c-4.696-7.285-5.112-14.026-4.92-16.433l-.373-1.533-1.054-.405-.181.011c-2.332.447-3.589 1.864-4.611 3.334l-.096.138-1.054 1.683-.096.18" style="stroke-width:10.6496" transform="scale(2)"/><path fill="#a27529" d="m26.933 78.094-.224.224-.692.777-1.129-.234-1.576.522-.096.117-1.097 1.746-.064.15c-.67 1.916-1.405 4.579-1.65 5.74l-.011.053 1.108 1.437c.575-2.683 1.948-6.858 2.396-7.7l.873-.606 1.108.223 1.8-.884c.02-.01 1.746-1.618 2.939-2.651l1.672-.746.468.181c.17.469-1.64 8.062-1.608 12.034v.192c.01 1.033.032 2.066.15 3.088l.042.245c.223 1.598.756 3.131 1.044 4.015l1.054-1.693c-1.79-5.261.394-15.943 1.14-18.445l-.054-1.097-1.022-.373-.405.032c-1.832.351-2.929 1.129-4.09 1.938l-.16.107-.276.223-1.587 1.332-.053.053m72.279-21.299 1.235.309c2.013.202 3.887 2.066 5.953 1.171l.022-.01c1.63-.49 2.598.297 2.598.297l.256.203.16.127.372.352.064.053.82.895.053.064c1.321 1.565 2.397 3.557 3.11 4.888l.48.862-.895 1.47c-2.78-6.028-4.878-7.774-6.007-7.774l-.969.522-.926.447-.948-.298c-2.78-1.907-7.114-2.524-8.669-2.524l-.309.01-.18.15c.031.383 2.214 2.545 6.74 8.392l.032.053.82 1.374-.01.01.042.065.011.02c.554.948 1.033 2.11 1.427 3.11l.117.267v.01c.213.554.746 1.96.98 3.068l.032.223.021.16.298 3.28-1.586-1.342c-.629-8.882-10.767-18.328-10.863-18.413l-.522-1.235.703-.565 1.736-.17 1.714.117.384.053 1.278.224.426.085M29.67 62.491l-.256.394c-.266 1.79.15 3.866.426 4.931l.032.107.01-.021.043-.053-.01-.021.82-1.363c-.586-1.46-.863-3.44-.863-3.44l-.202-.533m74.1 37.913-.01-.01-.533-.267-.628-.096-.576.053-.16.043-.031-.202c1.714-.767 3.397-2.237 4.537-3.302l1.586-1.523.405-.32a77.835 77.835 0 0 0-1.15 2.695l-.373.309a35.647 35.647 0 0 1-3.067 2.62m-74.484 29.361.064.011c-2.204-3.195-5.665-4.175-7.103-4.356h-.021l-.064-.01-.064.01-.117.011-.064.053.16.107c2.694 1.288 4.185 2.843 4.824 3.76l2.236.383.15.032m5.293 1.458c-2.759-4.952-7.072-7.029-8.968-7.625l-.138-.032-.245-.053.181.245c3.589 2.162 5.719 5.176 6.603 6.677l2.396.735.17.053m6.358 2.396.043.021.01-.01.384-.267c-3.131-6.273-7.593-8.84-9.564-9.649l-.138-.064-.266-.096-.128-.02-.01.02.031.053.01.011.022.021.33.256c3.781 2.748 6.326 7.04 7.274 8.85l1.182.49.82.383m5.101-1.447c-1.906-3.6-5.048-5.868-6.677-6.752l-.234-.075-.054.011.054.096.128.128c1.948 1.746 4.27 5.389 5.143 6.816l1.555-.213.085-.011" style="fill:#ab7e1b;fill-opacity:1;stroke-width:10.6496" transform="scale(2)"/><path fill="#e0c070" d="m40.98 133.643-.043-.021.043.02.01-.01-.01.01M27.678 107.87l.15.117-.15-.118m.799-49.615v.02-.02m-9.702-12.812.022-.01-.022.01m.032-.021h-.01.01" style="fill:#ab7e1b;fill-opacity:1;stroke-width:10.6496" transform="scale(2)"/><path fill="#e0c070" d="m40.98 133.643-.043-.021.043.02.01-.01-.01.01m.01-.01.384-.266-.384.266m50.97.011.042-.021-.042.02-.011-.01.01.01m13.301-25.772-.148.117.149-.118m-.799-49.615v.02-.02m9.702-12.812-.021-.01.021.01m-.032-.021h.01-.01" style="fill:#ab7e1b;fill-opacity:1;stroke-width:10.6496" transform="scale(2)"/><path fill="#e0c070" d="m91.96 133.643.042-.021-.042.02-.011-.01.01.01m-.01-.01-.383-.266.383.266" style="fill:#ab7e1b;fill-opacity:1;stroke-width:10.6496" transform="scale(2)"/><path fill="#a27529" d="m45.964 120.234.735 1.544 1.33 1.448 2.482 2.332.139-1.831c-1.875-1.331-4.058-3.26-4.058-3.26l-.628-.233m2.002-4.685-.543-.895-.085.618c.575 1.927 2.524 4.452 3.855 6.006l.958-1.512c-1.853-1.416-3.802-3.536-4.185-4.217M29.17 100.405l.01-.01.532-.267.629-.096.575.053.16.043.032-.202c-1.715-.767-3.398-2.237-4.537-3.302l-1.587-1.523-.405-.32c.554 1.247.98 2.258 1.15 2.695l.373.309a35.646 35.646 0 0 0 3.067 2.62M16.187 49.787l-.426-.692-.244.48-.576 4.26c-.99 4.26-2.598 6.346-3.248 7.007l.671.724.735.841c3.61-4.686 3.568-11.278 3.088-12.62m11.172 19.925-.682-2.29-.351-2.183-.053-.82-.022-.32-.021-.926-.192-.5-.447.372c-.863 4.526.703 9.17 1.566 10.97l.18.361c.235-1.107.767-2.513.98-3.056v-.011l-.223-.256-.735-1.341m-.831-11.607zm2.993-11.236.117-.607-.458.128s-.98 1.118-1.991 4.356c-.608 1.97-.8 4.632-.725 6.4l.064 1.13.224.095.767.15h.191l.65-.044.117-.032c-1.374-5.633 1.044-11.576 1.044-11.576m3.089-22.225-.98.67c-1.098 1.119-2.525 2.248-3.536 2.993l-1.363.948c-.607 1.278-1.332 2.79-1.513 3.174l.767-.49c7.412-6.06 6.614-7.285 6.624-7.295m-.277 5.25c.948-1.108.767-1.278.735-1.3v-.01l-.767.223c-1.725 1.65-4.59 3.962-5.825 4.952l.053.011.288.107.543.703.234.65.032.116c1.864-1.693 4.707-5.452 4.707-5.452m1.704 2.087-.032-.617-.937.937c-1.363 2.119-3.962 3.77-5.229 4.473l.107 1.65v.128c5.016-3.344 5.995-6.22 6.091-6.57m11.236-1.439-.139-.182-.511.032-.053.011c-1.694.33-4.441 1.875-6.805 3.334-.778 1.523-1.758 2.833-2.599 3.802 2.993-2.556 8.275-5.687 8.946-6.028l1.16-.97" style="fill:#ab7e1b;fill-opacity:1;stroke-width:10.6496" transform="scale(2)"/><path fill="#a27529" d="m25.197 32.438.021-.01c.192-.384.916-1.886 1.523-3.175l.852-1.895c1.683-4.633 2.886-10.107 3.035-10.863.352-1.757.852-1.874 1.087-1.906h.02c2.6-.352 4.612 8.307 4.815 10.287l.01.31c.256.17 1.012 1.256 1.044 2.545.149 5.548-4.239 9.797-7.146 12.247l1.98-1.065 1.225.16.022.01 1.48-1.533c.841-.98 1.832-2.3 2.61-3.813.66-1.299 1.17-2.726 1.31-4.217l.01-.213-.022-1.81c-.202-1.726-.83-2.44-.83-2.44l-.01-.074c-2.12-12.258-6.412-12.365-6.87-12.365l-.074.011c-1.257 0-1.566 1.694-1.577 1.726-.02.075-1.916 7.625-2.758 10.532-.607 2.087-1.842 4.25-2.439 5.176l.597 2.045m24.441 1.002.245-.138.18-.128.14-.096.287-.33h.01l-.021-.043-.032-.032-.053-.021h-.075l-1.406.266c-5.25 1.598-10.681 7.05-12.598 9.02l.085.128c.15.266.597.873 1.63.937 3.344-4.515 10.319-8.818 11.608-9.563" style="fill:#ab7e1b;fill-opacity:1;stroke-width:10.6496" transform="scale(2)"/><path fill="#a27529" d="M39.095 29.308c1.8-1.033 3.802-1.576 5.207-1.576 1.907 0 2.982.905 3.206 1.182l1.832-.106c4.015 0 5.538.788 6.102 1.448l.34.81-.053.372c-.585 1.661-6.187 4.239-6.421 4.345-3.153 1.779-5.762 4.334-6.944 6.23h.021l1.14-.032.937.021c2.364-3.504 8.829-6.528 9.084-6.635 2.727-1.448 3.6-2.768 3.845-3.642l-.043-1.405c-1.16-2.663-4.526-2.94-6.794-2.94-1.118 0-2.066.224-2.077.224l-.106.02-.054-.095c-.83-1.086-2.588-1.416-3.62-1.416l-.906.043c-1.714.096-4.174 1.15-4.718 1.341l.022 1.81M36.432 48.18l.128-.661-.511-.085c-1.534 1.054-1.736 5.016-1.874 7.55l.085-.117.032-.052 1.246-1.353.16-.17.02-1.012c.107-2.332.714-4.1.714-4.1" style="fill:#ab7e1b;fill-opacity:1;stroke-width:10.6496" transform="scale(2)"/><path fill="#a27529" d="M42.396 42.013h-.032l-.18.021c-1.247.128-2.397.384-3.228.565l-.096.02c-.255.022-.65.086-.883.054h-.032c-1.033-.064-1.48-.682-1.63-.948l-.085-.139-1.044-1.501-1.49-1.001-.033-.011-1.214-.16-1.98 1.065c-1.087.724-2.247 1.63-2.642 1.906l-.404 2.748 2.971-2.365 1.491-1.128 1.3-.373 1.054.586 1.746 2.353 1.896.724 1.384-.18 2.897-.629 1.438-.224.788.224.17.351-1.991 2.407c-2.695 2.311-4.963 4.59-6.742 6.763l-.127.138c-1.044 1.065-1.587 1.715-2.44 2.865l-.766.958 1.235-.308.426-.096 1.278-.213c3.728-4.473 8.009-8.818 10.139-10.937l1.054-1.066.394-1.714L44.462 42l-.937-.02-1.129.031m-22.108-7.772c-1.321 2.268-2.28 7.167-2.652 9.425l1.054 1.65.085.139.022-.021h.01l.022-.011c.873-3.344 1.48-8.648 2.034-11.16l-.575-.022m3.418 4.217c.021-.468-.064-2.226-.5-.447-.352 1.416-1.428 5.133-2.418 6.9v.012l1.086 1.171.17.544v.02c1.279-3.386 1.64-7.763 1.662-8.2m-7.039-.064c.969-4.547 3.248-9.425 2.108-8.583-.735.553-1.693 2.673-2.204 3.95v.15c.053 1 .064 2.247.064 3.248v.032l-.01 1.054v.043l-.012.373.054-.266" style="fill:#ab7e1b;fill-opacity:1;stroke-width:10.6496" transform="scale(2)"/><path fill="#a27529" d="m16.305 41.726.127-1.087c.235-1.14.17-2.29.203-3.45v-.021c0-1.022-.01-2.258-.054-3.259v-.01l-.02-.31-.022-.33c-.394-4.558-1.661-9.254-1.672-9.286-.554-1.832-.266-2.184-.16-2.258l.586-.17c1.789 0 4.622 3.237 6.006 5.24 1.992 2.896 2.673 6.623 2.684 6.676.224 1.023.618 1.992 1.278 2.258l.937 1.076.288 1.405v.458l-.011.31c.021 6.346-2.279 10.042-3.546 11.554l.404 2.13c1.704-1.704 3.355-4.664 3.973-7.455l.053-.255.053-.31.405-2.747.021-.32c.053-1 .117-2.001.096-3.013v-.128l-.107-1.65-.042-.373-.043-.362-.128-.693-.031-.127-.224-.65-.554-.703-.287-.106-.054-.011c-1.171-.15-1.097-.757-1.363-1.64l-.586-2.056-.063-.16s-1.864-5.75-7.349-9.2c0 0-1.065-.619-2.162-.619l-1.618.703.032 3.163c2.066 7.018 1.778 13.6 1.565 15.996l1.16 1.491.225.298m-5.016 14.527c1.64-3.376 2.066-8.211 1.608-9.383l-.458-.383-.384 1.544c-.064.99-.372 2.492-.66 3.387l.107 2.652-.341 2.257-.096.352.224-.426m8.136-3.61-.128-.245-.106-.15-.17-.074-.065.052-.074.192-.043.373-.01.192c.266 4.856-2.918 10.404-3.856 11.927l.874 1.278.127.107.245.064.096-.011c1.012-1.694 4.622-8.573 3.11-13.706" style="fill:#ab7e1b;fill-opacity:1;stroke-width:10.6496" transform="scale(2)"/><path fill="#a27529" d="m11.076 56.666.095-.34.341-2.259-.117-2.651-.01-.16-.192-1.246c-.458-2.47-1.32-4.899-2.002-6.837l-.746-2.194c-.926-2.3-1.203-3.76-.82-4.313l.394-.234h.01l.288-.021c3.887 0 9.106 10.18 9.33 10.628l.606.49.32-.074 1.108-.586.298-.074.948 1.16c1.363 5.273 1.363 9.969 1.31 12.237l.82-.905.063-.053.373-.33.16-.138c-.021-1.97-.117-4.24-.288-5.9l-.021-.16-.01-.053-.395-2.14-.074-.299-.277-1.246c-.213-.99-.405-1.832-.554-2.343l-.16-.522-1.086-1.192-.415-.053-.788.149-.618.319-.138.075v.011l-.032.011-.022.011-.01.011.01-.011-.085-.128c-1.15-1.863-2.385-3.674-3.77-5.367l-.234-.288c-3.376-4.025-5.698-4.867-7.05-4.867l-1.118.267c-1.523.862-.128 4.664-.107 4.707.021.096 3.014 9.329 3.397 12.513.298 2.45-.724 4.718-1.256 5.655l1.501 1.203 1.023-2.46M9.83 67.583c-.458 1.842-.874 3.472-1.534 4.42.117.575.533 2.832.596 4.078v.043l.011.064c2.087-4.845 1.98-8.104 1.992-8.967.02-.937-.693-1.14-1.065.362M14.153 70c-.404-2.066-1.15 2.748-1.15 2.748-.884 4.707-2.417 8.083-2.865 8.988l1.843 1.161.096.064c2.407-5.516 2.076-12.96 2.076-12.96m3.237 2.662-.457 1.182-.586 4.473c-.394 2.524-1.246 5.197-1.693 6.39l.703.362.458.149.862.128c.17-.735 1.257-5.666 1.289-8.265.021-1.916-.053-4.42-.575-4.42m10.586 11.332-.15-.224-.426-.351-.063-.011-.054-.011h-.02v.905l.553 1.267.99 1.917.64 1.193.478.873 1.417 2.46-.032-.245c-.128-1.022-.15-2.066-.15-3.088-1.075-1.459-2.736-3.749-3.024-4.377l-.16-.309m-3.184 3.771-.99-1.31-.107.011-.074.309v.032l.074.33.011.032c.543 1.448 1.374 2.96 2.311 4.398l1.725 2.46a62.911 62.911 0 0 0 3.216 3.888l.48.5.021-.085.724-1.895c-2.29-1.726-6.741-7.881-7.39-8.67" style="fill:#ab7e1b;fill-opacity:1;stroke-width:10.6496" transform="scale(2)"/><path fill="#a27529" d="m8.956 76.751-.032-.351-.02-.213-.012-.064v-.053c-.063-1.225-.49-3.493-.596-4.068l-.01-.064c-1.79-8.052-6.614-13.472-6.667-13.525l-.085-.884.02-.021.022-.011 1.736-.405c3.642 0 7.433 4.718 7.583 4.91 1.842 2.055 3.716 4.877 4.515 6.07l.756.468.99-.436.437-.203.533.448c2.524 5.048 3.631 10.49 3.983 12.907l1.107-1.757c-.692-5.474-2.556-9.617-3.6-11.79l-.074-.117-.053-.117-.895-1.448-.117-.106c-.394-.224-.948-.267-1.98.372l-.182.064-.106.011-.245-.053-.128-.106-.873-1.31-.235-.34-1.459-1.929-.223-.276c-.916-1.087-2.024-2.215-3.003-3.217L8.54 57.923l-.181-.149c-2.929-2.3-5.772-1.96-5.783-1.96-1.16.033-2.076.427-2.577 1.13l.511 2.204.937 1.246c6.22 8.307 6.177 17.284 5.996 19.979l1.427.692c.096-1.331.16-3.025.085-4.313m11.077 17.711-.107-.17-.063-.065-.032-.01v.404c1.128 5.271.383 10.117-.022 11.885l.277.075.224.01h.106l.8-.542.553-.692.192-.277c.191-4.59-1.15-9.031-1.928-10.618" style="fill:#ab7e1b;fill-opacity:1;stroke-width:10.6496" transform="scale(2)"/><path fill="#a27529" d="m16.187 105.379.064.01.192.054c1.757-9.5.405-13.44-.596-14.729l-.043-.053-.138-.16.02.31c.704 3.14.533 6.56-.201 9.69l-.064.32-.31-.053c-.02-.032-.532-2.333-2.438-5.549l-.032-.053.064-.277c1.076-5.335.075-7.273-.405-7.848l-.053-.064v.075c.096 1.565-.224 4.323-.575 5.623l-.192.702-.191-.298c-2.77-4.324-7.082-10.362-8.339-11.576l-.234-.799 2.204.299c4.132 1.064 7.508 3.354 9.201 5.282 0 0 1.289 1.459 2.737.862l1.96.32c1.16.905 3.056 4.185 4.59 7.944 2.109 5.176 3.472 9.574 4.004 12.28l.256.17.16.117.095-4.068c-.5-1.683-1.512-4.697-2.098-6.188l-.095-.234a89.421 89.421 0 0 0-1.161-2.694c-.714-1.619-1.64-3.59-2.546-5.23l-.479-.883-.042-.053-1.108-1.417-.213-.287c-1.129-1.449-2.31-1.523-3.024-1.566h-.245c-2.556.074-6.188-3.93-9.468-4.984l-.192-.096c-1.831-.81-3.376-1.224-4.536-1.224-2.013 0-2.184 1.203-2.184 1.214l.906 1.512c2.513 2.918 8.977 12.747 9.244 13.173 3.088 5.496 3.301 8.616 2.896 9.99l1.363.191 1.246.245m26.678 6.911-1.757-1.778-.118-.118-1.96-2.236a41.284 41.284 0 0 1-2.012-2.662l-1.16-1.736-.32-.362-.021.02.01.459c.597 1.927 1.491 4.323 8.552 12.066l.234.053.107.02.191-.202-.01-.096-.043-.458-.043-.692-.032-.841-.521-.437-1.097-1m-7.21-2.63-1.491-2.066-.437-.714-.191-.351-.394-.33-.043.383.117.639.277.852 1.033 2.034 1.427 2.002.618.756a39.861 39.861 0 0 0 2.96 3.131l2.556 2.322v-.117l.203-1.768c-1.704-1.598-5.4-5.09-6.635-6.773" style="fill:#ab7e1b;fill-opacity:1;stroke-width:10.6496" transform="scale(2)"/><path fill="#a27529" d="m19.957 119.957 1.001-.98.17-.117.012-.011-.842-.863c-2.034-2.013-4.654-3.78-7.178-5.101l-.745-.394a40.734 40.734 0 0 0-3.578-1.65l-4.505-1.492-.256-.458c.032-.479.756-.98 2.205-1.544l.223-.075c1.14-.458 2.716-1.086 5.123-1.086 2.321 0 5.005.607 7.976 1.778l1.14.213.841-.266.618-.724.83-.309 1.364.469c.074.043 8.274 4.26 11.96 12.715l1.437.533c-.586-1.779-2.694-6.795-8.168-11.289l-.267-.213a37.263 37.263 0 0 0-2.225-1.63l-.373-.255a39.764 39.764 0 0 0-3.046-1.831l-1.3-.437-.138.011-.276.117-.203.266-.543.703-.81.543-.106.011-.213-.032-.277-.075-.117-.032-.064-.01-1.14-.427c-1.693-.543-3.386-.947-5.154-1.107l-1.778-.085-1.64.075a14.352 14.352 0 0 0-3.59.82c-1.256.458-2.417 1.14-3.47 1.97l-.075.053-.778.852.107.99 1.597 1.087 2.183.756 1.938.66.224.096 2.652 1.16a49.077 49.077 0 0 1 3.195 1.811 39.168 39.168 0 0 1 3.024 2.056c1.001.766 1.768 1.416 2.418 2.087l.681.735h.011" style="fill:#ab7e1b;fill-opacity:1;stroke-width:10.6496" transform="scale(2)"/><path fill="#a27529" d="M14.654 109.851h-.117l.074.522c2.535 1.598 6.347 5.698 7.998 7.55l.852-.202 1.023-.106.127-.011c-5.58-6.145-8.647-7.593-9.957-7.753m5.186.703-.17-.02.192.414c2.662 1.822 5.335 5.25 6.41 6.678l.991.117.075.011.458.064.575.085.16.032c-3.877-5.42-7.285-7.029-8.69-7.38m4.674.074-.202-.021.085.426c3.302 2.875 5.549 6.123 6.347 7.359l1.832.479.17.053c-3.354-5.836-6.751-7.785-8.232-8.296m8.073-63.548-.234-.798-.725.766c-1.182 3.089-1.267 8.754-1.182 10.671l.054-.01 1.703-.533.15-.043c-.788-4.473.17-9.404.234-10.053" style="fill:#ab7e1b;fill-opacity:1;stroke-width:10.6496" transform="scale(2)"/><path fill="#a27529" d="m33.727 56.795-1.235.309c-2.013.191-3.887 2.066-5.953 1.171l-.021-.01c-1.63-.49-2.599.297-2.599.297l-.256.203-.16.127-.372.352-.064.053-.82.895-.053.064c-1.32 1.565-2.396 3.557-3.11 4.888l-.48.862.895 1.47c2.78-6.028 4.878-7.774 6.007-7.774l.969.522.926.447.948-.298c2.78-1.907 7.114-2.524 8.67-2.524l.308.01.181.15c-.032.383-2.215 2.545-6.741 8.392l-.032.053-.82 1.374.01.01-.042.065-.01.02c-.555.948-1.034 2.11-1.428 3.11l-.117.267v.01c-.213.554-.745 1.96-.98 3.068l-.032.223-.021.16-.298 3.28 1.587-1.342c.628-8.881 10.766-18.328 10.862-18.413l.522-1.235-.703-.565-1.736-.17-1.714.117-.384.053-1.278.224-.426.085m7.455 86.709s-.98.788.192.33c5.08-2.034 10.042-1.193 11.895-.756l.544-1.64c-7.242-.926-11.108.99-12.63 2.066m1.831-3.621.245.256c1.48-.48 4.877-1.31 11.14-.48l.521-1.575c-3.546-.299-9.265-.384-11.906 1.8m3.216-3.526s-.916.405.138.213c1.694-.32 5.123-.841 9.106-.16l.511-1.544c-2.705-.202-6.368-.064-9.755 1.491m40.021-14.59.735-1.533-.628.234s-2.066 1.821-3.898 3.152l.15 1.779 2.3-2.162 1.341-1.47m-.734-7.114-.544.906c-.372.66-2.257 2.715-4.078 4.12l.969 1.46c1.32-1.566 3.173-4.004 3.738-5.857l-.085-.629m-42.237 8.232-.085-.17c-1.001-.437-2.982-1.203-4.792-1.874l-.64-.235-1.448-.521a47.568 47.568 0 0 0-7.934-2.184l-.575-.096-.458-.064-.074-.01-1.001-.097-.128-.01-.959-.033-.575.011-.117.011-1.033.117-.841.203-.064.01-1.416.917-.011.01-.17.118-1.002.99.064.064v.011l-.681.139-2.354.586a36.75 36.75 0 0 0-3.067.98c-1.672.628-5.996 2.832-5.996 5.452 0 .554.416 1.214 1.587 1.352l.522.064c1.704.203 7.114.927 10.905 1.566l.309-.192c.703-.404 1.406-.564 2.194-.692l.99-.085c-3.514-.65-10.074-1.768-12.683-2.023-1.353-.128-1.62-.597-1.609-.98.054-1.64 5.677-4.239 10.682-4.42l.096-.202c.277-.778.937-2.63 4.526-2.63.937 0 2.013.127 3.216.372.085.021 8.988 1.864 16.124 5.91l-1.406-2.182-.096-.182" style="fill:#ab7e1b;fill-opacity:1;stroke-width:10.6496" transform="scale(2)"/><path fill="#a27529" d="m23.078 129.361-.107.032-.404.085-.554.17-.203.086-.553.266-.31.192-.265.202-1.246 2.343-1.449.83a36.88 36.88 0 0 0-3.088 2.045c-1.267.927-2.226 1.853-3.43 3.067-1.33 1.332-2.321 2.63-3.034 3.94-.831 1.545-1.225 3.057-1.193 4.527l.404 1.448 1.065.511 1.417-.287.767-.202c7.55-2.098 13.013-3.61 19.297-3.61l2.119.042 1.065-2.31-.469-.033h-.117l-.383.011-3.014.235.01.01-.404.033-.192.02c-3.993.352-12.29 1.715-18.775 4.026l-.277.053-.49-.255c-.287-.416-.255-1.246.085-2.194.022-.064 2.546-6.252 11.289-10.565.096-.554.724-3.472 3.43-3.472l.276.011c.096.011 9.776 1.321 15.655 4.26l.777-1.054.203-.181-.043-.021-.82-.373-1.182-.49v-.01c-1.427-.586-2.96-1.066-4.356-1.524l-.17-.043c-3.525-1.096-7.242-2.268-10.98-1.885l-.351.064" style="fill:#ab7e1b;fill-opacity:1;stroke-width:10.6496" transform="scale(2)"/><path fill="#a27529" d="M53.29 131.577c-2.097.127-4.962.33-7.252.596l-.085.01-1.555.214-.064.01-1.224.246-1.736.703-.373.266-.01.011-.203.17-.777 1.087-.064.127-.192 1.758.01.106-.095.064c-3.227 1.896-6.283 4.622-7.423 8.307l-.33 2.545.788.66.692-.138c.053-.021 5.613-2.045 18.946-2.535h.043l.521-1.608c-3.056.256-13.738 1.193-18.69 2.375l-.064.011h-.02l-.278-.128-.085-.65c.532-2.96 5.122-6.453 6.603-7.124l.948-1.778.521-1.438c1.651-1.874 6.742-2.13 6.944-2.14l7.22-.608-.617-.479m35.463-13.889v-.127l-.202-1.758-.011-.053-.021-.075-.863-.457-.17.01-.416.033-.17.02-.128.022-.234.053-.107.02-.191-.202c.415-4.899.074-11.757-3.909-15.09l-.543-.277-.213.17c.852 4.665-3.706 11.129-7.37 13.483l-2.672 1.448a15.18 15.18 0 0 1-3.174.948 19.318 19.318 0 0 1-3.472.309h-1.033c-1.193 0-2.364-.107-3.46-.31a14.993 14.993 0 0 1-3.175-.947l-2.673-1.448-2.204-1.779-1.768-2.013c-1.427-1.778-3.546-5.836-3.546-8.232l.085-.703.053-.308.01-.448-.212-.17h-.01l-.533.277-.309.266-.948 1.022-.788 1.161-.628 1.31-.48 1.353c-.915 3.173-1.064 6.602-.766 9.882l.01.096-.191.203-.107-.021c-.373-.107-.756-.117-1.129-.139l-.862.458-.01.075c-.778 3.419.649 6.56 2.725 9.201l.757.863c1.938 2.034 4.142 3.216 5.92 3.887l-.894-1.96c-4.25-2.417-6.23-5.388-7.018-7.87l-.415-2.353.362-1.033.074-.011.203.043.074.032.203.064.404.053.842-.277.5-1.48-.064-1.512c-.17-4.974 1.15-8.605 1.172-8.648l.479-.362.756.863c4.792 12.119 15.218 12.407 17.263 12.407h1.64c2.045 0 12.47-.288 17.252-12.407l.767-.863.48.362c.02.043 1.33 3.674 1.171 8.648l-.075 1.512.501 1.48.852.277.394-.053.213-.064.074-.032.203-.043.064.011.372 1.033-.415 2.354c-.777 2.438-2.705 5.356-6.805 7.742l-.863 1.991c1.726-.692 3.824-1.842 5.677-3.79l.756-.864c1.746-2.396 2.758-4.078 2.94-7.135v-.128" style="fill:#ab7e1b;fill-opacity:1;stroke-width:10.6496" transform="scale(2)"/><path fill="#a27529" d="m34.026 138.754-.778-.308c-3.386-1.246-8.743-2.982-12.183-1.268l-.117.341h.298l.777-.021c.789 0 1.843.053 3.185.288l1.437.308.8.203c.808.234 1.703.522 2.672.884l2.045.82 2.396 1.118 1.406-1.46.042-.042-.66-.309-1.32-.554m2.704-3.034-1.288-.512-2.247-.713a19.518 19.518 0 0 0-4.388-.66l-1.746.042-1.779.224s-1.043.202.085.287l.693.053a25.94 25.94 0 0 1 2.78.416l1.5.362 1.63.5a24.795 24.795 0 0 1 5.41 2.727l1.95-1.32.074-.044-1.598-.852-1.075-.511m-18.137 5.261s-1.224.489.107.425c5.154-.234 8.488.81 10.064 1.491l.223.085.416-.021-.022-.021 3.025-.224.373-.01.127.01c-7.667-3.674-12.396-2.555-14.313-1.735m98.158-91.193.426-.692.245.48.575 4.26c.99 4.26 2.598 6.346 3.248 7.007l-.67.724-.736.841c-3.61-4.686-3.567-11.278-3.088-12.62M105.58 69.712l.682-2.29.351-2.183.054-.82.02-.32.022-.926.192-.5.447.372c.863 4.526-.703 9.17-1.565 10.97l-.181.361c-.235-1.107-.767-2.513-.98-3.056v-.011l.224-.256.734-1.341m-2.3-7.221.256.394c.266 1.79-.15 3.866-.426 4.931l-.032.107-.01-.021-.043-.053.01-.021-.82-1.363c.586-1.46.863-3.44.863-3.44l.202-.533m3.131-4.387zm-1.949.34.117.033.65.043h.192l.766-.15.224-.096.064-1.128c.075-1.768-.117-4.43-.724-6.4-1.012-3.238-1.992-4.356-1.992-4.356l-.458-.128.118.607s2.417 5.942 1.043 11.576m-4.132-33.802.98.67c1.097 1.119 2.524 2.248 3.536 2.993l1.363.948c.607 1.278 1.331 2.79 1.512 3.174l-.767-.49c-7.412-6.06-6.613-7.285-6.624-7.295m.277 5.25c-.948-1.108-.767-1.278-.735-1.3v-.01l.767.223c1.725 1.65 4.59 3.962 5.825 4.952l-.053.011-.287.107-.544.703-.234.65-.032.116c-1.863-1.693-4.707-5.452-4.707-5.452m-1.693 2.087.032-.617.937.937c1.363 2.119 3.961 3.77 5.229 4.473l-.107 1.65v.128c-5.016-3.344-5.995-6.22-6.091-6.57m-11.246-1.439.138-.182.511.032.054.011c1.693.33 4.44 1.875 6.805 3.334.777 1.523 1.757 2.833 2.598 3.802-2.992-2.556-8.274-5.687-8.945-6.028l-1.161-.97" style="fill:#ab7e1b;fill-opacity:1;stroke-width:10.6496" transform="scale(2)"/><path fill="#a27529" d="m107.742 32.438-.021-.01c-.192-.384-.916-1.886-1.523-3.175l-.852-1.895c-1.683-4.633-2.886-10.107-3.035-10.863-.351-1.757-.852-1.874-1.086-1.906h-.022c-2.598-.352-4.61 8.307-4.813 10.287l-.01.31c-.256.17-1.013 1.256-1.044 2.545-.15 5.548 4.238 9.797 7.145 12.247l-1.98-1.065-1.225.16-.021.01-1.48-1.533c-.842-.98-1.832-2.3-2.61-3.813-.66-1.299-1.171-2.726-1.31-4.217l-.01-.213.02-1.81c.203-1.726.832-2.44.832-2.44l.01-.074c2.12-12.258 6.411-12.365 6.87-12.365l.074.011c1.256 0 1.565 1.694 1.576 1.726.021.075 1.917 7.625 2.758 10.532.607 2.087 1.843 4.25 2.439 5.176l-.596 2.045M83.387 33.11l-.245-.138-.192-.128-.128-.096-.287-.33h-.011l.021-.043.032-.032.054-.021h.074l1.406.266c5.25 1.598 10.681 7.05 12.598 9.02l-.085.128c-.149.266-.596.873-1.63.937-3.343-4.515-10.319-8.818-11.607-9.563" style="fill:#ab7e1b;fill-opacity:1;stroke-width:10.6496" transform="scale(2)"/><path fill="#a27529" d="M93.845 29.308c-1.8-1.033-3.802-1.576-5.208-1.576-1.906 0-2.982.905-3.206 1.182l-1.831-.106c-4.015 0-5.538.788-6.103 1.448l-.34.81.053.372c.586 1.661 6.187 4.239 6.422 4.345 3.152 1.779 5.761 4.334 6.943 6.23h-.021l-1.14-.032-.937.021c-2.364-3.504-8.828-6.528-9.084-6.635-2.726-1.448-3.6-2.768-3.855-3.642l.042-1.405c1.172-2.663 4.537-2.94 6.806-2.94 1.118 0 2.066.224 2.076.224l.107.02.053-.095c.83-1.086 2.588-1.416 3.62-1.416l.906.043c1.715.096 4.175 1.15 4.718 1.341l-.021 1.81m2.662 18.873-.128-.661.511-.085c1.534 1.054 1.736 5.016 1.875 7.55l-.086-.117-.032-.052-1.246-1.353-.16-.17-.02-1.012c-.107-2.332-.714-4.1-.714-4.1" style="fill:#ab7e1b;fill-opacity:1;stroke-width:10.6496" transform="scale(2)"/><path fill="#a27529" d="M90.543 42.013h.032l.181.021c1.246.128 2.396.384 3.227.565l.096.02c.255.022.65.086.884.054h.032c1.033-.064 1.48-.682 1.629-.948l.085-.139 1.044-1.501 1.49-1.001.033-.011 1.214-.16 1.98 1.065c1.087.724 2.248 1.63 2.642 1.906l.404 2.748-2.97-2.365-1.492-1.128-1.299-.373-1.054.586-1.747 2.353-1.896.724-1.384-.18-2.897-.629-1.437-.224-.788.224-.17.351 1.99 2.407c2.695 2.311 4.963 4.59 6.742 6.763l.128.138c1.065 1.097 1.565 1.693 2.438 2.865l.767.958-1.235-.308-.426-.096-1.278-.213c-3.727-4.473-8.009-8.818-10.139-10.937l-1.054-1.066-.394-1.714L88.477 42l.937-.02 1.129.031m22.109-7.772c1.32 2.268 2.279 7.167 2.652 9.425l-1.055 1.65-.085.139-.021-.021h-.01l-.022-.011c-.873-3.344-1.48-8.648-2.034-11.16l.575-.022m-3.419 4.217c-.021-.468.064-2.226.5-.447.352 1.416 1.428 5.133 2.418 6.9v.012l-1.086 1.171-.17.544v.02c-1.278-3.386-1.64-7.763-1.662-8.2m7.04-.064c-.97-4.547-3.249-9.425-2.109-8.583.735.553 1.693 2.673 2.204 3.95v.15a66.03 66.03 0 0 0-.063 3.248v.032l.01 1.054v.043l.01.373-.052-.266" style="fill:#ab7e1b;fill-opacity:1;stroke-width:10.6496" transform="scale(2)"/><path fill="#a27529" d="m116.635 41.726-.128-1.087c-.245-1.14-.17-2.3-.202-3.45v-.021c0-1.022.01-2.258.053-3.259v-.01l.021-.31.021-.33c.394-4.558 1.662-9.254 1.662-9.286.564-1.832.277-2.184.17-2.258l-.586-.17c-1.789 0-4.622 3.237-6.006 5.24-1.991 2.896-2.673 6.623-2.684 6.676-.223 1.023-.617 1.992-1.278 2.258l-.937 1.076-.287 1.405v.458l.01.31c-.021 6.346 2.28 10.042 3.547 11.554l-.405 2.13c-1.704-1.704-3.355-4.664-3.972-7.455l-.054-.255-.053-.31-.405-2.747-.02-.32c-.054-1-.118-2.001-.097-3.013v-.128l.107-1.65.042-.373.043-.362.128-.693.032-.127.223-.65.554-.703.288-.106.053-.011c1.15-.15 1.107-.746 1.352-1.64l.597-2.056.064-.16s1.863-5.75 7.348-9.2c0 0 1.065-.619 2.162-.619l1.619.703-.032 3.163c-2.066 7.018-1.779 13.6-1.566 15.996l-1.16 1.491-.224.298m5.015 14.527c-1.64-3.376-2.065-8.211-1.607-9.383l.458-.383.383 1.544c.064.99.373 2.492.66 3.387l-.106 2.652.34 2.257.096.352-.223-.426m-8.137-3.61.128-.245.107-.15.17-.074.064.052.074.192.043.373.01.192c-.266 4.856 2.919 10.404 3.856 11.927l-.873 1.278-.128.107-.245.064-.096-.011c-1.012-1.694-4.633-8.573-3.11-13.706" style="fill:#ab7e1b;fill-opacity:1;stroke-width:10.6496" transform="scale(2)"/><path fill="#a27529" d="m122.886 59.138 1.502-1.214c-.533-.937-1.555-3.206-1.257-5.634.383-3.195 3.365-12.439 3.397-12.535.022-.032 1.417-3.823-.106-4.685l-1.118-.288c-1.353 0-3.675.852-7.05 4.878l-.235.276c-1.384 1.715-2.609 3.515-3.78 5.379l-.075.138h.01-.01l-.032-.021-.021-.011-.15-.085-.606-.32-.788-.149-.416.053-1.086 1.193-.17.533c-.139.49-.33 1.341-.544 2.332l-.287 1.246-.064.287-.405 2.152v.053l-.032.16c-.16 1.65-.255 3.918-.287 5.9l.17.138.373.33.053.053.82.905c-.053-2.279-.053-6.965 1.32-12.236l.938-1.172.298.075 1.118.586.31.075.617-.49c.224-.437 5.442-10.628 9.329-10.628l.287.02h.011l.394.235c.373.564.107 2.023-.83 4.324l-.735 2.194c-.693 1.938-1.545 4.355-2.003 6.837l-.191 1.224-.021.17-.107 2.642.34 2.279.097.34 1.022 2.46m.224 8.446c.458 1.842.873 3.472 1.533 4.42-.117.575-.532 2.832-.607 4.078l.01.043-.01.064c-2.087-4.845-1.98-8.104-2.002-8.967-.01-.937.703-1.14 1.076.362M118.786 70c.405-2.066 1.15 2.748 1.15 2.748.884 4.707 2.418 8.083 2.865 8.988l-1.843 1.161-.095.064c-2.407-5.516-2.077-12.96-2.077-12.96m-3.238 2.662.458 1.182.586 4.473c.394 2.524 1.246 5.197 1.693 6.39l-.702.362-.458.149-.863.128c-.17-.735-1.257-5.666-1.289-8.265-.02-1.916.054-4.42.575-4.42m-10.575 11.332.15-.224.425-.351.064-.011.054-.011h.02v.905l-.553 1.267-.99 1.917-.64 1.193-.479.873-1.416 2.46.032-.245c.128-1.022.15-2.066.15-3.088 1.075-1.459 2.736-3.749 3.024-4.377l.16-.309m3.173 3.771.99-1.31.107.011.074.309v.032l-.074.33-.01.032c-.544 1.448-1.375 2.96-2.312 4.398l-1.725 2.46a59.31 59.31 0 0 1-3.216 3.888l-.48.5-.02-.085-.725-1.895c2.29-1.726 6.741-7.881 7.391-8.67" style="fill:#ab7e1b;fill-opacity:1;stroke-width:10.6496" transform="scale(2)"/><path fill="#a27529" d="m123.983 76.751.032-.351.021-.213.01-.064v-.053c.065-1.225.49-3.493.597-4.068l.01-.064c1.79-8.051 6.614-13.472 6.667-13.525l.086-.884-.022-.021-.021-.011-1.736-.405c-3.642 0-7.433 4.718-7.582 4.91-1.843 2.055-3.717 4.877-4.516 6.07l-.756.468-.99-.436-.437-.203-.533.448c-2.523 5.048-3.631 10.49-3.982 12.907l-1.108-1.757c.692-5.474 2.556-9.617 3.6-11.79l.074-.116.053-.118.895-1.448.117-.106c.394-.224.948-.267 1.98.372l.182.064.106.011.245-.053.128-.106.873-1.31.235-.34 1.459-1.928.223-.277c.916-1.087 2.024-2.215 3.004-3.217l1.501-1.214.181-.149c2.929-2.3 5.772-1.96 5.783-1.96 1.16.033 2.077.427 2.577 1.13l-.511 2.204-.937 1.246c-6.22 8.307-6.177 17.284-5.996 19.979l-1.427.692c-.096-1.331-.16-3.024-.085-4.313m-11.076 17.711.107-.17.064-.065.032-.01v.404c-1.13 5.271-.384 10.117.02 11.885l-.276.075-.224.01h-.106l-.799-.542-.554-.692-.191-.277c-.192-4.59 1.15-9.031 1.927-10.618" style="fill:#ab7e1b;fill-opacity:1;stroke-width:10.6496" transform="scale(2)"/><path fill="#a27529" d="m117.998 105.133 1.363-.191c-.405-1.374-.192-4.484 2.897-9.99.266-.436 6.709-10.255 9.244-13.173l.905-1.512c0-.011-.17-1.214-2.183-1.214-1.182 0-2.705.415-4.537 1.224l-.192.096c-3.27 1.044-6.933 5.07-9.478 4.984h-.234c-.714.043-1.896.117-3.025 1.576l-.213.277-1.107 1.417-.043.053-.48.884c-.904 1.64-1.83 3.62-2.544 5.229a89.413 89.413 0 0 0-1.161 2.694l-.096.234c-.586 1.491-1.608 4.505-2.098 6.188l.096 4.068.16-.117.255-.17c.522-2.706 1.896-7.104 4.004-12.269 1.534-3.77 3.419-7.05 4.59-7.955l1.96-.32c1.448.597 2.737-.862 2.737-.862 1.693-1.928 5.07-4.207 9.19-5.283l2.216-.298-.235.799c-1.267 1.214-5.57 7.242-8.338 11.576l-.192.298-.192-.692c-.351-1.31-.67-4.068-.575-5.634v-.075l-.053.064c-.48.576-1.48 2.514-.405 7.85l.064.276-.032.053c-1.906 3.227-2.417 5.517-2.439 5.549l-.308.053-.064-.32c-.746-2.992-.905-6.688-.203-9.69l.022-.31-.139.16-.042.064c-1.001 1.278-2.354 5.218-.597 14.718l.192-.053.064-.011 1.246-.245m-27.923 7.157 1.757-1.778.117-.118 1.96-2.236a41.28 41.28 0 0 0 2.012-2.662l1.161-1.736.32-.362.02.02-.01.459c-.596 1.927-1.49 4.323-8.551 12.066l-.235.053-.106.02-.192-.202.01-.096.043-.458.043-.692.032-.841.522-.437 1.097-1m7.209-2.63 1.491-2.066.437-.714.192-.351.394-.33.042.383-.117.639-.277.852-1.033 2.034-1.427 2.002-.618.756a39.86 39.86 0 0 1-2.96 3.131l-2.556 2.322v-.117l-.202-1.768c1.704-1.598 5.399-5.09 6.634-6.773" style="fill:#ab7e1b;fill-opacity:1;stroke-width:10.6496" transform="scale(2)"/><path fill="#a27529" d="m100.65 96.198.085.182c.468 1.128.948 2.3 1.097 3.535l.032.202.16-.032.574-.052.629.084.532.277.01.011 1.194 2.428.032.554.02.522.097 4.068-.096.075-1.033.767-.203.16c.096-1.31.32-6.007-.777-7.21l-.692-.32-1.289.693-.394.16-.511-.256-.085-.66c.01-.053 1-5.006-3.823-8.2l-.735-.182-.586.224-.266.948c-.021 5.463-2.14 11.395-6.198 16.805l-.064-.916-.096-.841c4.696-7.285 5.112-14.026 4.92-16.433l.373-1.533 1.054-.405.181.011c2.332.447 3.59 1.864 4.611 3.334l.096.138 1.055 1.683.096.18" style="fill:#ab7e1b;fill-opacity:1;stroke-width:10.6496" transform="scale(2)"/><path fill="#a27529" d="m112.982 119.957-1.001-.98-.17-.117-.011-.011.841-.863c2.034-2.023 4.654-3.78 7.178-5.101l.745-.394a40.733 40.733 0 0 1 3.579-1.65l4.505-1.492.255-.458c-.032-.479-.756-.98-2.204-1.544l-.224-.075c-1.14-.458-2.716-1.086-5.122-1.086-2.322 0-5.006.607-7.977 1.778l-1.14.213-.84-.266-.619-.724-.83-.309-1.363.469c-.075.043-8.275 4.26-11.96 12.715l-1.438.533c.586-1.779 2.695-6.795 8.169-11.289l.266-.213a37.262 37.262 0 0 1 2.226-1.63l.372-.255c.98-.65 2.003-1.267 3.046-1.831l1.3-.437.138.011.277.117.202.266.543.703.81.543.106.011.213-.032.277-.075.117-.032.064-.01 1.14-.427c1.693-.543 3.386-.947 5.154-1.107l1.779-.085 1.64.075c1.267.128 2.48.404 3.588.82 1.257.458 2.418 1.14 3.472 1.97l.075.053.777.852-.106.99-1.598 1.087-2.183.756-1.938.66-.224.096-2.652 1.16a50.702 50.702 0 0 0-3.194 1.811 39.168 39.168 0 0 0-3.025 2.056c-1.001.766-1.768 1.416-2.417 2.087l-.682.735h-.01" style="fill:#ab7e1b;fill-opacity:1;stroke-width:10.6496" transform="scale(2)"/><path fill="#a27529" d="M118.285 109.851h.118l-.075.522c-2.535 1.598-6.347 5.698-7.998 7.55l-.852-.202-1.022-.106-.128-.011c5.58-6.145 8.648-7.593 9.957-7.753m-5.185.703.17-.02-.192.414c-2.663 1.822-5.336 5.25-6.411 6.678l-.99.117-.075.011-.458.064-.575.085-.16.032c3.876-5.42 7.284-7.029 8.69-7.38m-4.675.074.202-.021-.085.426c-3.301 2.875-5.548 6.123-6.347 7.359l-1.832.479-.17.053c3.354-5.836 6.752-7.785 8.232-8.296m-8.073-63.548.235-.798.724.766c1.182 3.089 1.267 8.754 1.182 10.671l-.053-.01-1.704-.533-.15-.043c.8-4.473-.17-9.404-.234-10.053m5.655 31.013.224.224.692.777 1.13-.234 1.575.522.096.117 1.097 1.746.064.15c.67 1.916 1.406 4.579 1.65 5.74l.011.053-1.107 1.437c-.575-2.683-1.95-6.858-2.396-7.7l-.874-.606-1.107.223-1.8-.884c-.021-.01-1.747-1.618-2.94-2.651l-1.671-.746-.469.181c-.17.469 1.64 8.062 1.608 12.034v.192c-.01 1.033-.032 2.066-.149 3.088l-.043.245c-.223 1.598-.756 3.131-1.043 4.015l-1.055-1.693c1.79-5.261-.394-15.943-1.139-18.445l.053-1.097 1.023-.373.404.032c1.832.351 2.929 1.129 4.09 1.938l.16.107.276.223 1.587 1.332.053.053" style="fill:#ab7e1b;fill-opacity:1;stroke-width:10.6496" transform="scale(2)"/><path fill="#a27529" d="m89.66 122.886.084-.17c1.001-.437 2.982-1.203 4.793-1.874l.639-.235 1.448-.521a47.569 47.569 0 0 1 7.934-2.184l.575-.096.458-.064.075-.01 1-.097.128-.01.959-.033.575.011.117.011 1.033.117.841.203.064.01 1.406.917.01.01.171.118 1.012.99-.064.064v.011l.681.139 2.354.586c1.108.308 2.12.628 3.067.98 1.672.628 5.996 2.832 5.996 5.452 0 .554-.415 1.214-1.587 1.352l-.522.064c-1.704.203-7.124.927-10.905 1.566l-.309-.192c-.703-.404-1.406-.564-2.194-.692l-.99-.085c3.514-.65 10.075-1.768 12.684-2.023 1.352-.128 1.618-.597 1.608-.98-.053-1.64-5.676-4.239-10.692-4.42l-.086-.202c-.277-.778-.947-2.63-4.526-2.63-.937 0-2.013.127-3.216.372-.085.021-8.988 1.864-16.123 5.91l1.405-2.182.096-.182" style="fill:#ab7e1b;fill-opacity:1;stroke-width:10.6496" transform="scale(2)"/><path fill="#a27529" d="m109.862 129.361.106.032.405.085.554.17.202.086.554.266.308.192.267.202 1.246 2.343 1.448.83a36.882 36.882 0 0 1 3.088 2.045c1.268.927 2.226 1.853 3.43 3.067 1.33 1.332 2.321 2.63 3.035 3.94.83 1.545 1.225 3.057 1.193 4.527l-.405 1.448-1.065.511-1.416-.287-.767-.202c-7.55-2.098-13.014-3.61-19.297-3.61l-2.12.042-1.065-2.31.469-.033h.128l.372.011 3.014.235-.01.01.404.033.192.02c3.994.352 12.29 1.715 18.775 4.026l.277.053.49-.255c.288-.416.256-1.246-.085-2.194-.021-.064-2.545-6.252-11.289-10.565-.096-.554-.724-3.472-3.429-3.472l-.277.011c-.095.011-9.776 1.321-15.655 4.26l-.777-1.054-.202-.181.042-.021.82-.373 1.182-.49v-.01c1.427-.586 2.96-1.066 4.356-1.524l.17-.043c3.525-1.096 7.242-2.268 10.98-1.885l.352.064" style="fill:#ab7e1b;fill-opacity:1;stroke-width:10.6496" transform="scale(2)"/><path fill="#a27529" d="m91.96 133.643.202.18.777 1.076.064.128.192 1.747-.01.106.095.053c3.216 1.917 6.283 4.622 7.423 8.318l.33 2.555-.788.65-.692-.128c-.064-.02-5.613-2.044-18.946-2.545h-.042l-.522-1.597c3.056.255 13.738 1.182 18.69 2.374l.064.011h.021l.277-.127.085-.66c-.532-2.961-5.122-6.454-6.603-7.104l-.958-1.81-.511-1.427c-1.651-1.864-6.742-2.11-6.944-2.12l-7.22-.628 1.523-1.182c2.076.117 5.676.33 8.445.66l.085.011 1.555.224h.064l1.224.245 1.726.713.383.266.01.011m11.694-3.877-.064.011c2.204-3.195 5.666-4.175 7.103-4.356h.022l.063-.01.064.01.117.011.064.053-.16.107c-2.694 1.288-4.185 2.843-4.824 3.76l-2.236.383-.15.032m-5.292 1.458c2.758-4.952 7.071-7.029 8.967-7.625l.138-.032.245-.053-.18.245c-3.59 2.162-5.72 5.176-6.603 6.677l-2.397.735-.17.053" style="fill:#ab7e1b;fill-opacity:1;stroke-width:10.6496" transform="scale(2)"/><path fill="#a27529" d="m92.002 133.621-.042.021-.011-.01-.383-.267c3.13-6.273 7.593-8.84 9.563-9.649l.138-.064.267-.096.127-.02.011.02-.032.053-.01.011-.022.021-.33.256c-3.78 2.748-6.326 7.04-7.274 8.85l-1.182.49-.82.383m-5.101-1.447c1.906-3.6 5.048-5.868 6.677-6.752l.235-.075.053.011-.053.096-.128.128c-1.95 1.746-4.27 5.389-5.144 6.816l-1.555-.213-.085-.011m12.013 6.581.777-.308c3.387-1.246 8.744-2.982 12.183-1.268l.117.341h-.298l-.777-.021c-.788 0-1.843.053-3.184.288l-1.438.308-.799.203c-.81.234-1.704.522-2.673.884l-2.045.82-2.396 1.118-1.405-1.46-.043-.042.66-.309 1.32-.554m-2.704-3.034 1.288-.512 2.247-.713a19.518 19.518 0 0 1 4.388-.66l1.747.042 1.778.224s1.044.202-.085.287l-.692.053a25.94 25.94 0 0 0-2.78.416l-1.501.362-1.63.5a24.794 24.794 0 0 0-5.41 2.727l-1.949-1.32-.074-.044 1.597-.852 1.076-.511m18.136 5.261s1.225.489-.106.425c-5.155-.234-8.488.81-10.064 1.491l-.224.085-.415-.021.021-.021-3.025-.224-.372-.01-.128.01c7.668-3.674 12.396-2.555 14.313-1.735m-22.588 2.524c-1.501-1.065-5.303-2.95-12.385-2.098l.532 1.619c1.992-.447 6.773-1.16 11.662.81 1.171.457.191-.33.191-.33m-2.077-3.377.245-.245c-2.587-2.151-8.104-2.108-11.672-1.81l.522 1.555c6.103-.778 9.447.043 10.906.5m-3.111-3.557c1.055.203.14-.213.14-.213-3.291-1.501-6.838-1.672-9.51-1.501l.5 1.533c3.876-.639 7.21-.128 8.87.181" style="fill:#ab7e1b;fill-opacity:1;stroke-width:10.6496" transform="scale(2)"/><path fill="#d1d3d4" d="M74.217 132.407c1.331 4.111 3.6 11.267 3.334 11.3-.267.031-2.94-7.349-4.377-11.396l-.938-.127c.99 4.387 3.046 13.674 2.748 13.695-.32.021-2.748-9.627-3.813-13.898l-1.235-.298-.149.043c.884 4.388 2.748 13.845 2.386 13.855-.363.011-2.429-9.308-3.387-13.727l-1.022-.309h-2.418l-.894.277c-.959 4.409-3.036 13.77-3.387 13.76-.362-.012 1.49-9.426 2.375-13.824l-.266-.075-1.108.266c-1.054 4.25-3.504 13.951-3.813 13.93-.308-.021 1.758-9.34 2.748-13.717l-.937.139c-1.438 4.036-4.11 11.437-4.388 11.406-.266-.032 2.013-7.189 3.344-11.3l-1.097.032-.926-.032c.266.448.5 1.257.01 2.45l-4.632 13.961 10.021.203 3.025-14.196 1.182-1.055h.021l1.14 1.097 3.024 14.154 10-.203-4.622-13.993c-.49-1.172-.245-1.97.01-2.418h-1.959" style="fill:#d4d5d5;fill-opacity:1;stroke-width:10.6496" transform="scale(2)"/><path fill="#d1d3d4" d="M81.214 122.226c-1.118-4.899-8.733-3.003-11.086-1.555l-1.097-.447-1.257.575-1.214-.575-1.203.575-1.257-.575-1.097.447c-1.97-1.214-7.604-2.726-10.064-.34l-1.011 1.8-.022.095-.362 2.109-.064 2.087c.117 2.077.831 3.206 1.31 3.792 0 0 3.174 2.534 10.49.447l.82.245h.053l1.204-.586 1.203.586 1.214-.586 1.204.586h.053l.82-.245c7.295 2.087 10.468-.447 10.468-.447.746-.906 2.024-3.036.895-7.988" style="fill:#d4d5d5;fill-opacity:1;stroke-width:10.6496" transform="scale(2)"/><path fill="#6d6e70" d="m64.11 120.671-.873.884v1.406c-.372-.213-4.025-2.247-7.263-.34l-.404.234.468-.054c.054-.01 5.016-.617 7.114 1.417l.085.085v1.342c-.362-.213-3.6-1.981-6.464-.298l-.415.245.48-.064c.042-.011 4.45-.554 6.314 1.246l.085.085v2.715l.874.863.873-.863v-8.019l-.873-.884m2.428 0-.873.884v8.02l.873.862.873-.863v-8.019l-.873-.884m3.44 3.547c2.087-2.024 7.05-1.427 7.103-1.417l.469.064-.405-.245c-3.397-2.002-7.252.341-7.295.373h-.01v-1.438l-.874-.884-.873.884v7.998l.873.884.873-.884v-2.64l.139-.15c1.853-1.79 6.262-1.246 6.304-1.235l.469.064-.405-.245c-3.014-1.79-6.464.298-6.496.32l-.01.01v-1.32m-15.272 5.463s2.758-2.301 8.19.052c0 0-5.56 2.173-8.19-.053m23.897.001s-2.758-2.301-8.19.052c0 0 5.56 2.173 8.19-.053" style="fill:#6a6c6c;fill-opacity:1;stroke-width:10.6496" transform="scale(2)"/><path fill="#6d6e70" d="m69.85 130.65-.82.245h-.052l-1.204-.586-1.214.586-1.203-.586-1.204.586H64.1l-.82-.245c-7.305 2.087-10.48-.447-10.48-.447-.478-.586-1.192-1.704-1.309-3.792l.064-2.076.362-2.12.021-.096 1.012-1.81c2.46-2.364 8.083-.863 10.053.362l1.097-.458 1.257.586 1.203-.586 1.214.586 1.257-.586 1.097.458c2.353-1.459 9.968-3.344 11.086 1.544 1.129 4.952-.149 7.082-.894 7.987 0 0-3.174 2.535-10.469.448m10.948 18.157-10.01.213-3.015-14.164-1.14-1.096h-.031l-1.172 1.065-3.024 14.195-10.01-.213 4.61-13.961c.501-1.193.256-2.002 0-2.439l.927.043 1.086-.043c-1.33 4.1-3.6 11.257-3.333 11.289.277.032 2.95-7.37 4.388-11.395l.937-.139c-.99 4.366-3.057 13.685-2.748 13.706.31.021 2.748-9.68 3.813-13.93l1.107-.266.256.074c-.884 4.399-2.726 13.813-2.375 13.824.362.01 2.439-9.34 3.387-13.76l.905-.266h2.417l1.023.298c.958 4.42 3.024 13.738 3.386 13.728.352-.011-1.501-9.468-2.385-13.856l.149-.032 1.235.288c1.065 4.27 3.493 13.919 3.802 13.898.309-.021-1.746-9.298-2.737-13.685l.937.128c1.438 4.036 4.1 11.416 4.377 11.384.267-.032-2.002-7.188-3.333-11.288h1.96c-.267.436-.501 1.235-.011 2.406zm-2.971-16.613c2.023-.415 3.024-1.171 3.099-1.235l.138-.139.405-.575.873-1.991c.213-.852.298-1.821.266-2.854l-.16-1.79-.298-1.608-.287-.862-.97-1.47-1.575-1.044c-2.918-1.214-7.082-.106-9.127.906l-2.418.032h-2.428l-2.407-.032c-2.044-1.012-6.208-2.12-9.126-.906l-1.651 1.13-.959 1.533-.234.713-.309 1.726-.149 1.82c-.01 1.044.085 1.992.32 2.834l.894 1.959.341.48.139.138c.074.064 1.096.852 3.194 1.256l.618.469.021.02c.032.022.586.533.064 1.811l-.106.352c-1.214 3.631-2.407 7.273-3.61 10.905l-1.31 3.983 12.108.245 3.195-14.995.224-.287h.01l.213.32L70.011 150l12.108-.245-2.225-6.752c-.895-2.716-1.79-5.442-2.695-8.157l-.117-.363c-.511-1.246.043-1.757.053-1.767" style="fill:#6a6c6c;fill-opacity:1;stroke-width:10.6496" transform="scale(2)"/></svg>